<?xml version="1.0" standalone="no"?>
<!DOCTYPE svg PUBLIC "-//W3C//DTD SVG 20010904//EN"
 "http://www.w3.org/TR/2001/REC-SVG-20010904/DTD/svg10.dtd">
<svg version="1.0" xmlns="http://www.w3.org/2000/svg"
 width="1024.000000pt" height="469.000000pt" viewBox="0 0 1024.000000 469.000000"
 preserveAspectRatio="xMidYMid meet">

<g transform="translate(0.000000,469.000000) scale(0.100000,-0.100000)"
fill="#000000" stroke="none">
<path d="M5113 4289 c-22 -22 -16 -58 10 -63 12 -2 78 -13 146 -25 144 -25
331 -84 450 -141 88 -43 117 -47 135 -18 8 14 6 22 -9 37 -46 44 -353 154
-530 190 -155 31 -188 34 -202 20z"/>
<path d="M4528 4199 c-22 -13 -23 -55 -2 -63 9 -3 42 -6 74 -6 49 0 61 -4 70
-20 8 -15 6 -24 -8 -38 -16 -16 -42 -20 -173 -26 -85 -3 -167 -9 -182 -12 -30
-7 -50 -34 -41 -58 9 -22 28 -26 86 -15 92 16 492 23 608 10 138 -16 244 -38
303 -63 49 -21 58 -37 31 -59 -13 -10 -39 -8 -152 14 -186 36 -284 47 -435 47
-186 0 -496 -39 -563 -71 -33 -16 -42 -50 -19 -69 21 -18 102 2 154 37 28 19
44 23 71 18 55 -10 77 -9 215 5 101 10 133 17 145 31 20 23 65 40 87 32 10 -3
29 -16 43 -29 40 -36 165 -58 251 -44 50 9 82 9 120 1 67 -15 85 -25 144 -81
28 -26 70 -55 95 -64 77 -30 247 -123 356 -196 65 -44 114 -70 132 -70 40 0
75 -22 92 -57 9 -18 47 -55 90 -86 108 -78 118 -82 141 -61 10 9 19 21 19 25
0 12 -132 110 -310 231 -185 126 -247 162 -447 262 -118 59 -153 81 -153 96 0
25 27 39 60 30 111 -32 424 -201 641 -346 86 -57 163 -104 172 -104 20 0 39
25 35 47 -3 18 -106 93 -292 213 -100 64 -114 70 -161 70 -43 0 -57 5 -79 26
-14 15 -26 32 -26 39 0 13 -82 53 -210 103 -198 78 -448 137 -640 149 -91 7
-115 11 -124 26 -8 12 -8 22 0 35 10 14 25 17 98 15 204 -5 547 -90 807 -201
85 -37 100 -40 126 -30 25 10 36 8 64 -8 19 -11 40 -33 47 -50 9 -19 33 -40
70 -60 31 -17 87 -47 124 -68 55 -31 70 -35 87 -26 37 19 25 48 -33 85 -292
187 -672 329 -1081 404 -204 38 -487 54 -527 30z"/>
<path d="M4746 3844 c-21 -20 -20 -37 2 -57 27 -25 60 -21 74 8 21 46 -40 86
-76 49z"/>
<path d="M5775 3846 c-16 -12 -18 -19 -10 -43 9 -23 16 -28 45 -28 31 0 35 3
38 30 6 46 -35 69 -73 41z"/>
<path d="M4308 3779 c-25 -14 -23 -56 3 -69 16 -9 26 -8 45 5 28 18 31 37 8
59 -18 18 -32 20 -56 5z"/>
<path d="M5093 3770 c-112 -23 -177 -101 -177 -215 -1 -67 15 -112 68 -201 24
-40 36 -71 36 -96 0 -35 2 -38 29 -38 27 0 29 3 34 53 8 64 -3 108 -43 170
-44 70 -38 137 11 137 10 0 24 -9 32 -21 15 -20 15 -20 41 6 21 21 29 24 46
15 11 -6 20 -18 20 -27 0 -15 2 -15 18 0 21 19 58 22 67 6 15 -23 6 -82 -14
-108 -40 -48 -52 -89 -49 -159 3 -64 4 -67 29 -70 23 -3 27 1 33 31 4 19 27
76 52 128 62 126 70 202 29 277 -32 59 -81 97 -145 111 -51 12 -59 12 -117 1z"/>
<path d="M4620 3763 c-169 -17 -194 -23 -217 -52 -29 -37 -75 -48 -108 -27
-13 9 -33 16 -44 16 -26 0 -231 -68 -248 -82 -18 -15 -16 -57 3 -65 9 -3 82
15 163 41 221 71 306 86 528 93 l192 6 26 38 25 39 -40 0 c-26 0 -51 -8 -70
-21 -33 -25 -89 -22 -120 6 -9 8 -25 14 -36 13 -10 0 -35 -3 -54 -5z"/>
<path d="M4610 3609 c-139 -10 -241 -32 -375 -81 -127 -46 -205 -86 -205 -103
0 -7 8 -23 18 -35 l17 -22 94 47 c113 56 145 61 149 24 3 -24 -6 -31 -95 -79
-121 -64 -125 -68 -117 -94 13 -41 24 -48 53 -29 89 59 240 147 263 154 43 12
78 -33 46 -58 -7 -5 -46 -22 -87 -37 -73 -28 -221 -119 -221 -136 0 -5 10 -21
23 -36 l23 -26 50 43 c72 62 185 134 299 189 105 51 181 75 278 86 57 7 58 8
52 33 -4 14 -8 28 -11 30 -5 6 -269 -17 -372 -31 -74 -11 -84 -10 -99 5 -25
24 -7 49 46 64 38 11 94 17 357 39 56 5 62 8 67 29 2 14 2 27 -1 30 -7 7 -119
4 -252 -6z"/>
<path d="M5430 3551 c0 -27 -7 -68 -15 -91 -8 -23 -15 -44 -15 -45 0 -2 17 -9
38 -15 55 -18 150 -70 156 -86 8 -20 -4 -44 -21 -44 -9 0 -56 16 -106 36 l-91
37 -18 -23 c-10 -12 -18 -25 -18 -29 0 -4 26 -15 58 -25 95 -30 301 -114 331
-135 21 -15 37 -19 64 -14 31 5 40 1 65 -23 16 -16 31 -34 33 -39 3 -8 80 -70
178 -142 15 -11 22 -9 45 16 l27 28 -88 65 c-48 36 -140 101 -203 143 -160
109 -167 114 -195 156 -17 26 -49 52 -99 79 -89 49 -115 74 -100 98 6 9 20 18
30 20 27 4 136 -68 209 -139 33 -32 120 -96 191 -142 72 -46 165 -109 207
-141 42 -31 81 -56 86 -56 13 0 36 61 25 68 -5 4 -53 40 -105 80 -82 61 -102
72 -136 72 -44 0 -77 26 -88 72 -4 15 -14 29 -23 33 -8 3 -68 39 -132 79 -109
70 -266 156 -282 156 -5 0 -8 -22 -8 -49z"/>
<path d="M5146 3551 c-4 -5 -2 -12 3 -15 5 -4 12 -2 15 3 4 5 2 12 -3 15 -5 4
-12 2 -15 -3z"/>
<path d="M5044 3536 c-3 -8 1 -28 9 -43 67 -124 67 -125 67 -200 l0 -73 30 0
30 0 0 80 c0 86 14 133 49 164 12 11 21 31 21 48 0 28 -13 37 -25 18 -3 -5 -1
-10 5 -10 6 0 8 -5 5 -10 -4 -7 -13 -6 -27 1 -14 8 -23 8 -31 0 -14 -14 -50
-14 -64 0 -8 8 -13 8 -17 0 -12 -19 -35 -13 -29 8 6 23 -15 38 -23 17z"/>
<path d="M3846 3420 c-87 -27 -123 -138 -75 -233 49 -96 152 -235 219 -295 38
-35 67 -57 64 -48 -6 15 3 33 40 80 13 16 20 18 40 8 20 -9 33 -7 70 11 l46
22 -50 50 c-66 65 -124 156 -145 225 -23 78 -56 141 -85 161 -31 22 -86 31
-124 19z m106 -90 c28 -29 30 -34 24 -84 -5 -36 -3 -56 4 -61 6 -4 24 -35 41
-68 18 -39 47 -78 77 -104 60 -53 51 -64 -13 -15 -34 26 -58 55 -79 99 -44 87
-62 105 -92 91 -24 -11 -24 -12 -5 -32 28 -31 40 -60 51 -118 6 -28 16 -55 23
-60 9 -5 9 -10 0 -19 -6 -6 -16 -8 -21 -5 -10 6 -14 20 -27 99 -4 26 -21 55
-56 93 -76 84 -89 140 -44 188 34 36 77 35 117 -4z"/>
<path d="M5926 3364 c-21 -20 -20 -30 4 -54 22 -22 29 -24 46 -12 22 15 24 42
4 62 -24 24 -34 25 -54 4z"/>
<path d="M4785 3343 c-146 -31 -320 -116 -472 -230 l-74 -56 28 -23 c15 -13
31 -23 34 -24 3 0 30 18 60 41 30 22 92 63 139 91 47 28 102 66 123 85 34 30
43 34 90 32 29 -1 93 6 143 16 l92 19 -16 33 c-18 38 -35 40 -147 16z"/>
<path d="M4661 3206 c-29 -34 10 -93 46 -70 29 18 39 42 27 62 -14 22 -57 27
-73 8z"/>
<path d="M4838 3208 c-51 -9 -57 -13 -63 -39 -13 -59 -88 -87 -140 -53 -23 15
-27 15 -62 -6 -101 -60 -212 -136 -210 -143 1 -5 15 -16 30 -25 22 -14 31 -14
45 -5 141 98 304 172 438 199 46 9 84 22 84 28 0 6 3 21 6 34 6 20 3 22 -32
21 -22 -1 -65 -6 -96 -11z"/>
<path d="M6372 3213 c-40 -8 -87 -66 -117 -146 -44 -114 -88 -172 -196 -255
-114 -88 -200 -136 -429 -240 -185 -84 -235 -111 -235 -127 -1 -62 -20 -155
-36 -182 -12 -18 -58 -63 -104 -99 -110 -85 -198 -182 -236 -260 -42 -84 -33
-100 16 -28 21 33 64 86 94 118 67 70 256 214 378 287 48 29 90 54 92 56 3 2
-4 12 -15 23 -16 17 -22 18 -44 7 -13 -7 -34 -27 -47 -45 l-22 -33 -16 25
c-17 25 -14 69 6 108 10 19 165 96 281 139 42 15 105 42 140 60 58 30 71 32
163 33 55 1 121 -3 147 -8 l48 -8 101 100 c56 55 99 106 97 113 -6 17 -28 24
-28 8 0 -15 -49 -69 -63 -69 -5 0 5 19 22 42 22 30 31 53 31 80 0 35 3 40 36
54 27 12 43 13 66 5 28 -10 30 -8 44 24 34 81 6 165 -66 203 -43 21 -61 24
-108 15z m93 -87 c30 -30 41 -70 27 -101 -13 -29 -67 -59 -93 -52 -13 3 -19
-1 -21 -16 -3 -20 -47 -55 -144 -118 -40 -25 -62 -72 -44 -94 17 -21 25 -19
60 15 17 17 40 30 50 30 28 0 25 -18 -4 -26 -13 -3 -34 -17 -47 -30 -26 -28
-46 -30 -71 -8 -14 13 -21 14 -32 5 -8 -7 -34 -11 -58 -9 -34 3 -39 5 -23 12
11 5 30 18 43 29 20 19 22 19 22 3 0 -28 25 -12 25 17 1 27 30 67 49 67 5 0
27 12 48 27 l39 26 -27 22 c-21 17 -25 26 -19 46 9 30 44 69 62 69 7 0 13 11
13 26 0 15 12 38 29 55 37 37 82 39 116 5z"/>
<path d="M6291 2996 c-20 -23 -10 -60 17 -64 25 -4 52 13 52 32 -1 33 -50 56
-69 32z"/>
<path d="M5326 3178 c4 -18 9 -36 13 -39 3 -4 38 -16 78 -28 157 -47 337 -141
498 -262 l49 -37 30 21 29 21 -40 36 c-23 20 -59 48 -80 63 -34 23 -44 26 -67
17 -20 -7 -36 -6 -61 4 -33 14 -39 24 -47 80 -2 14 -24 28 -73 48 -79 33 -254
92 -302 102 -33 8 -33 7 -27 -26z"/>
<path d="M5042 3163 c-27 -4 -33 -8 -30 -26 3 -21 9 -22 93 -24 50 -1 109 0
133 3 37 5 43 8 40 27 -3 21 -8 22 -103 23 -55 1 -115 -1 -133 -3z"/>
<path d="M5792 3083 c-22 -8 -34 -41 -22 -63 20 -38 87 -16 78 26 -4 20 -38
43 -56 37z"/>
<path d="M4844 3061 c-73 -18 -178 -64 -293 -128 l-64 -36 47 -24 47 -24 30
26 c17 14 37 25 45 25 23 0 38 -43 25 -68 -9 -18 -8 -23 10 -33 18 -9 30 -6
68 14 119 64 388 84 544 39 133 -38 269 -104 358 -174 22 -16 32 -19 55 -11
16 5 29 15 29 21 0 6 -38 37 -85 69 -89 61 -111 95 -71 108 20 6 128 -58 204
-122 l28 -23 40 20 40 21 -28 23 c-132 109 -341 219 -511 269 l-52 16 -16 -31
c-9 -17 -12 -34 -7 -38 16 -14 119 -37 148 -33 57 9 109 -59 73 -95 -19 -19
-61 -14 -96 12 -58 42 -176 59 -363 53 -103 -3 -184 -11 -219 -21 -73 -21 -87
-20 -101 6 -18 33 13 51 127 73 98 18 133 38 134 73 0 17 -60 14 -146 -7z"/>
<path d="M5050 3060 c0 -6 7 -22 16 -35 14 -22 24 -25 74 -25 60 0 78 9 100
51 10 18 6 19 -90 19 -62 0 -100 -4 -100 -10z"/>
<path d="M6450 2935 c-15 -19 -4 -52 21 -60 42 -14 68 44 30 65 -26 14 -36 13
-51 -5z"/>
<path d="M4230 2911 c-33 -12 -44 -21 -42 -33 2 -10 4 -18 5 -18 1 0 17 4 35
9 30 9 44 4 145 -48 62 -31 131 -64 154 -73 51 -19 76 -57 100 -151 l18 -68
81 -43 c93 -50 177 -109 250 -178 l50 -47 46 37 c25 20 58 47 74 59 29 22 29
22 5 22 -12 1 -45 -11 -71 -26 l-48 -27 -72 60 c-40 32 -107 82 -149 109 -80
53 -108 87 -137 162 -14 36 -15 49 -6 64 11 18 -3 26 -184 114 -109 52 -200
94 -203 94 -3 -1 -26 -9 -51 -18z"/>
<path d="M4090 2870 c-13 -24 2 -60 25 -60 17 0 45 27 45 44 0 36 -53 48 -70
16z"/>
<path d="M3915 2830 c-6 -10 33 -70 46 -70 4 0 10 8 13 17 6 14 9 15 15 4 5
-8 11 -9 15 -3 10 16 -33 62 -59 62 -13 0 -27 -4 -30 -10z"/>
<path d="M5005 2813 c-65 -8 -225 -47 -225 -54 0 -5 18 -18 41 -29 31 -16 50
-20 85 -14 29 4 49 2 59 -6 18 -15 20 -60 3 -60 -7 -1 -2 -10 11 -20 17 -15
38 -20 85 -20 95 -1 193 -18 260 -46 83 -35 98 -38 120 -21 19 14 18 16 -25
43 -24 16 -84 42 -134 59 -72 25 -90 35 -90 50 0 18 7 20 55 19 43 -1 75 -10
140 -42 47 -23 101 -51 122 -64 36 -22 37 -22 74 -5 22 11 33 22 28 27 -5 5
-45 29 -88 54 -169 97 -374 147 -521 129z m113 -65 c7 -7 12 -25 12 -40 0 -22
-7 -32 -34 -45 -32 -15 -37 -15 -60 1 -30 19 -34 56 -10 80 18 19 75 21 92 4z"/>
<path d="M3762 2750 c-44 -27 -72 -76 -72 -128 0 -81 48 -136 128 -147 26 -4
55 -9 65 -12 17 -4 17 -3 0 31 -14 30 -22 36 -49 36 -38 0 -84 47 -84 86 0 32
25 80 45 88 52 20 97 0 125 -54 16 -30 26 -40 45 -40 17 0 25 6 25 17 0 26
-47 100 -79 122 -38 27 -105 28 -149 1z"/>
<path d="M4056 2715 c-21 -32 -20 -37 7 -63 31 -29 41 -28 65 10 l21 32 -34
23 c-19 13 -36 23 -38 23 -3 0 -12 -11 -21 -25z"/>
<path d="M6391 2713 c-20 -24 -20 -27 -5 -45 22 -23 41 -23 54 1 15 29 12 49
-9 61 -16 8 -23 5 -40 -17z"/>
<path d="M4178 2635 c-24 -33 -23 -44 9 -56 23 -9 30 -6 56 20 l30 29 -31 16
c-40 21 -44 20 -64 -9z"/>
<path d="M6278 2607 l-28 -22 33 -38 c31 -36 33 -37 55 -22 12 9 22 23 22 31
0 15 -39 74 -49 74 -3 0 -18 -10 -33 -23z"/>
<path d="M4296 2566 l-26 -34 33 -21 32 -20 38 37 37 36 -32 18 c-46 24 -52
23 -82 -16z"/>
<path d="M6170 2534 c-14 -10 -27 -19 -29 -20 -1 -1 10 -20 25 -41 16 -21 29
-40 30 -41 3 -5 64 31 64 38 0 3 -15 22 -33 43 -32 37 -32 38 -57 21z"/>
<path d="M4425 2499 l-40 -40 25 -19 c14 -11 30 -19 35 -19 6 0 32 20 59 44
l49 44 -38 15 c-21 9 -40 16 -44 16 -4 0 -25 -18 -46 -41z"/>
<path d="M5145 2499 c22 -22 52 -49 66 -59 26 -19 26 -19 79 14 29 18 49 36
44 39 -26 15 -152 47 -187 47 l-41 0 39 -41z"/>
<path d="M6405 2516 c-22 -13 -48 -38 -58 -55 l-18 -31 26 -10 c30 -11 45 -6
45 16 0 17 57 54 83 54 32 0 75 -29 85 -58 24 -68 -18 -122 -95 -122 -40 0
-44 -2 -41 -22 3 -20 10 -23 56 -26 85 -5 142 50 142 138 0 117 -120 179 -225
116z"/>
<path d="M4550 2434 c-28 -26 -50 -51 -50 -55 0 -5 11 -16 25 -25 25 -16 26
-16 83 37 31 30 58 57 60 60 3 6 -43 29 -59 29 -5 0 -32 -21 -59 -46z"/>
<path d="M6048 2464 c-16 -8 -28 -18 -28 -22 0 -4 13 -23 29 -42 l29 -35 36
19 35 19 -30 38 c-35 44 -34 44 -71 23z"/>
<path d="M5622 2428 c-17 -17 -15 -42 7 -62 23 -21 49 -12 57 20 11 42 -34 72
-64 42z"/>
<path d="M3793 2388 c-40 -42 -48 -71 -28 -92 9 -9 20 -16 24 -16 10 0 53 48
76 84 17 28 17 30 -1 43 -26 19 -37 16 -71 -19z"/>
<path d="M4656 2358 l-67 -61 25 -25 25 -26 43 40 c24 22 60 50 81 63 20 12
37 26 37 30 0 6 -63 41 -74 41 -2 0 -33 -28 -70 -62z"/>
<path d="M5920 2409 c-35 -14 -35 -14 1 -61 18 -24 34 -44 35 -46 1 -2 16 4
33 13 34 17 33 19 -6 73 -26 35 -27 35 -63 21z"/>
<path d="M3899 2322 c-19 -31 -62 -96 -96 -144 -65 -90 -71 -106 -51 -126 24
-24 48 -12 82 41 18 28 63 98 99 154 36 56 62 105 58 107 -4 3 -19 10 -33 15
-23 9 -27 5 -59 -47z"/>
<path d="M5798 2352 l-36 -14 37 -54 c20 -29 41 -53 46 -54 6 0 22 10 37 23
l26 22 -36 45 -37 46 -37 -14z"/>
<path d="M4770 2282 c-94 -70 -98 -76 -76 -117 10 -19 29 -44 42 -56 l24 -23
-6 32 c-8 41 20 81 98 133 57 39 59 41 42 60 -26 29 -53 23 -124 -29z"/>
<path d="M4017 2268 c-133 -212 -183 -290 -218 -339 -36 -49 -40 -59 -30 -78
16 -28 45 -27 69 4 23 30 77 138 89 180 15 53 93 44 93 -11 0 -13 -8 -32 -18
-42 -10 -10 -42 -53 -72 -96 -30 -43 -74 -100 -97 -126 -24 -27 -43 -58 -43
-69 0 -24 36 -43 58 -32 24 13 117 145 192 274 41 70 97 165 123 210 l48 82
-22 17 c-11 10 -25 18 -30 18 -4 0 -27 -32 -50 -70 -48 -81 -55 -88 -76 -68
-13 14 -11 22 16 74 17 33 37 67 44 77 10 15 9 21 -7 33 -29 21 -33 19 -69
-38z"/>
<path d="M5670 2299 c-13 -6 -26 -12 -28 -14 -6 -5 88 -135 97 -135 4 0 16 9
26 21 18 19 18 21 2 47 -10 15 -25 42 -34 60 -18 34 -24 36 -63 21z"/>
<path d="M4512 2248 c-34 -34 6 -90 48 -68 35 19 20 80 -20 80 -9 0 -21 -5
-28 -12z"/>
<path d="M4912 2240 c-12 -10 -28 -20 -35 -23 -8 -3 -7 -10 6 -25 30 -33 19
-57 -27 -57 -24 0 -41 5 -44 13 -3 9 3 13 14 12 32 -4 37 -1 24 14 -9 12 -17
13 -37 3 -23 -10 -25 -15 -21 -65 3 -29 12 -60 20 -68 14 -14 18 -12 39 23 13
21 49 66 82 99 l58 62 -23 16 c-28 20 -28 20 -56 -4z"/>
<path d="M5554 2242 c-16 -8 -30 -16 -32 -17 -2 -2 14 -29 36 -62 22 -32 47
-76 56 -97 l16 -39 35 33 c40 38 42 29 -40 141 l-41 56 -30 -15z"/>
<path d="M6423 2204 c-14 -6 32 -100 54 -108 8 -3 23 -1 34 4 55 30 -28 128
-88 104z"/>
<path d="M4603 2178 c-12 -27 -3 -56 31 -101 24 -31 24 -35 11 -72 -8 -22 -14
-68 -15 -103 0 -54 6 -77 42 -153 22 -49 42 -88 44 -86 2 1 10 38 19 80 9 43
27 111 40 150 14 40 25 73 25 74 0 2 -22 27 -49 57 -27 29 -67 81 -90 115 -23
33 -43 61 -45 61 -1 0 -7 -10 -13 -22z m150 -219 c7 -12 5 -30 -9 -64 -20 -50
-41 -67 -55 -44 -12 19 -11 86 2 110 12 23 47 22 62 -2z"/>
<path d="M4718 1930 c-7 -24 -3 -38 8 -28 3 4 4 17 2 30 l-3 23 -7 -25z"/>
<path d="M5445 2178 c-11 -6 -21 -12 -23 -13 -1 -1 14 -26 33 -55 20 -29 46
-86 57 -127 12 -40 25 -73 29 -73 4 0 17 15 28 34 19 31 20 37 7 73 -20 56
-51 113 -80 146 -29 31 -25 30 -51 15z"/>
<path d="M4170 2033 c-101 -178 -175 -289 -269 -405 -39 -48 -71 -93 -71 -101
0 -18 21 -37 41 -37 29 0 156 168 203 270 38 81 54 93 90 67 17 -13 17 -16 -8
-65 -45 -90 -136 -215 -208 -288 -54 -55 -69 -77 -66 -95 7 -53 67 -33 158 55
41 40 50 54 50 83 0 28 8 44 42 77 31 30 50 64 75 129 18 48 33 94 33 103 0 8
-16 31 -36 49 -42 40 -40 64 11 110 18 17 48 58 66 93 l34 63 -25 19 c-14 11
-28 20 -31 20 -3 0 -43 -66 -89 -147z"/>
<path d="M6298 2154 l-28 -14 34 -48 c18 -26 55 -85 82 -130 27 -46 57 -88 66
-93 24 -13 48 0 48 26 0 24 -147 266 -165 271 -5 2 -22 -4 -37 -12z"/>
<path d="M5771 2096 c-20 -21 -22 -31 -17 -69 9 -60 -13 -87 -77 -94 -57 -7
-57 -8 -179 -204 -84 -134 -135 -206 -203 -285 l-36 -42 36 -20 c19 -12 35
-18 35 -13 0 4 39 64 87 132 48 68 113 169 146 224 80 137 94 150 196 181 159
49 172 60 157 140 -13 66 -101 96 -145 50z m83 -33 c0 -13 5 -23 13 -23 16 0
17 -32 1 -48 -44 -44 -113 33 -72 79 24 27 59 21 58 -8z"/>
<path d="M6187 2094 c-16 -8 -27 -18 -25 -22 30 -66 40 -104 30 -114 -17 -17
-39 -2 -62 42 l-21 41 -29 -18 c-17 -9 -30 -22 -30 -28 0 -14 95 -248 128
-315 26 -52 31 -57 117 -98 112 -55 149 -62 164 -34 17 32 4 48 -55 72 -85 35
-130 73 -163 137 -16 32 -38 67 -50 77 -28 25 -29 81 -2 96 53 28 107 -17 97
-80 -8 -52 27 -108 89 -143 61 -33 108 -33 113 0 2 17 -9 31 -45 57 -26 19
-57 50 -69 68 -64 101 -117 192 -135 232 -11 25 -21 46 -22 46 -1 -1 -15 -8
-30 -16z"/>
<path d="M4327 2044 c-25 -51 -27 -58 -12 -73 21 -24 19 -68 -5 -98 -11 -14
-20 -33 -20 -42 0 -10 -13 -57 -30 -106 -16 -49 -28 -90 -26 -92 9 -9 53 21
68 48 9 16 24 29 33 29 12 0 15 12 15 58 0 65 24 213 41 255 11 25 9 31 -12
53 l-25 24 -27 -56z"/>
<path d="M5240 2035 c-11 -13 -9 -19 7 -38 12 -12 30 -38 42 -57 27 -46 27
-18 0 54 -23 60 -29 65 -49 41z"/>
<path d="M4431 1978 c-14 -44 -41 -235 -41 -288 0 -33 -4 -43 -19 -47 -16 -4
-18 -11 -14 -39 5 -28 -4 -48 -50 -126 -54 -91 -119 -162 -242 -265 l-50 -42
62 -1 c60 0 64 2 123 51 61 50 120 121 120 144 0 6 13 24 29 38 36 32 60 104
96 289 14 73 32 156 41 184 16 51 16 52 -11 93 -15 22 -29 41 -31 41 -1 0 -7
-15 -13 -32z"/>
<path d="M5154 1948 c-70 -77 -70 -76 -41 -87 48 -19 61 -71 27 -114 -43 -54
-36 -172 17 -290 26 -58 26 -58 46 -38 20 20 20 20 -1 83 -17 53 -21 93 -23
231 -3 176 4 208 37 176 12 -13 15 -43 15 -162 -1 -142 12 -247 29 -247 15 0
24 68 24 185 1 90 -3 122 -22 177 -22 63 -55 118 -71 118 -4 0 -20 -15 -37
-32z"/>
<path d="M4223 1944 c-9 -24 10 -49 37 -49 31 0 48 28 31 49 -17 21 -60 21
-68 0z"/>
<path d="M5962 1927 c-12 -13 -22 -29 -22 -36 0 -7 26 -87 57 -178 l57 -166
144 -70 c156 -75 217 -92 228 -62 12 30 -9 47 -112 90 -173 73 -174 74 -234
227 -76 197 -84 218 -91 218 -3 0 -15 -10 -27 -23z"/>
<path d="M4511 1738 c-12 -68 -40 -177 -61 -242 -28 -86 -36 -124 -29 -137 26
-49 -9 -99 -69 -99 -32 0 -45 -8 -86 -49 -46 -46 -47 -48 -24 -54 13 -4 41 -7
63 -7 38 0 43 3 89 68 68 93 97 160 105 244 6 75 22 98 56 84 14 -5 16 -14 11
-48 -13 -78 -60 -201 -107 -280 l-48 -79 47 3 47 3 65 128 66 128 -18 87 c-10
48 -20 134 -21 192 -2 90 -6 112 -26 143 -12 20 -26 37 -30 37 -4 0 -18 -55
-30 -122z"/>
<path d="M5855 1824 c-28 -36 -28 -37 -16 -102 9 -47 19 -70 35 -83 31 -24 50
-72 42 -104 -4 -14 -20 -34 -36 -44 l-30 -18 28 -36 c21 -28 34 -36 58 -37 40
0 75 -35 90 -87 13 -47 80 -91 201 -130 69 -23 84 -25 98 -13 34 28 14 49 -75
80 -47 16 -95 30 -107 30 -38 0 -56 55 -27 84 23 23 42 20 73 -15 37 -40 153
-84 182 -69 22 12 25 33 7 48 -7 5 -56 26 -108 47 -129 51 -249 113 -265 139
-20 30 -105 273 -105 299 0 46 -16 50 -45 11z"/>
<path d="M5046 1814 c-29 -28 -12 -64 29 -64 27 0 45 18 45 46 0 34 -47 46
-74 18z"/>
<path d="M5013 1715 c-3 -9 -3 -51 -1 -94 5 -85 41 -177 93 -239 37 -44 55
-27 22 21 -42 62 -70 169 -64 243 4 55 2 66 -13 74 -25 13 -30 13 -37 -5z"/>
<path d="M5743 1664 c-86 -145 -88 -171 -27 -294 27 -54 51 -83 97 -122 68
-57 217 -132 344 -173 84 -27 116 -27 127 2 9 23 -10 38 -70 57 -28 9 -91 36
-139 61 -67 34 -94 42 -120 38 -26 -4 -39 1 -66 25 -29 26 -33 36 -33 73 1 38
-7 54 -58 122 -32 44 -58 88 -58 98 0 26 26 76 45 86 11 7 13 18 7 53 l-8 45
-41 -71z"/>
<path d="M4644 1633 c3 -29 17 -103 31 -165 14 -62 28 -122 31 -133 2 -11 19
-29 36 -40 36 -22 79 -90 71 -112 -6 -15 6 -17 41 -3 30 11 29 18 -26 112 -22
36 -61 117 -87 180 -26 62 -60 136 -75 163 l-27 50 5 -52z"/>
<path d="M4252 1621 c-18 -11 -11 -61 11 -75 38 -24 73 30 41 65 -19 21 -32
23 -52 10z"/>
<path d="M5802 1598 c-7 -7 -12 -24 -12 -38 0 -52 48 -68 76 -25 15 23 15 27
0 50 -18 27 -45 32 -64 13z"/>
<path d="M4146 1565 c-22 -22 -2 -65 31 -65 29 0 30 -16 2 -30 -11 -6 -45 -34
-76 -61 -30 -28 -79 -66 -109 -85 -43 -28 -55 -40 -52 -57 11 -76 190 39 289
184 35 52 37 57 19 62 -11 3 -28 19 -37 36 -20 34 -43 39 -67 16z"/>
<path d="M5586 1399 l-29 -51 19 -60 c11 -33 26 -62 34 -65 52 -17 71 -28 87
-53 32 -49 120 -115 176 -133 54 -17 136 -20 192 -8 29 7 28 7 -25 26 -162 54
-245 107 -329 206 -44 52 -63 85 -75 129 -10 33 -18 60 -19 60 -1 0 -15 -23
-31 -51z"/>
<path d="M4345 1349 c-8 -12 2 -59 13 -59 23 1 36 24 33 58 -1 15 -37 16 -46
1z"/>
<path d="M5208 1334 c-11 -23 -10 -29 11 -45 13 -11 27 -19 31 -19 4 0 18 8
31 19 21 16 22 22 11 45 -9 20 -19 26 -42 26 -23 0 -33 -6 -42 -26z"/>
<path d="M5899 1344 c-11 -13 -11 -20 2 -42 25 -46 79 -37 79 12 0 43 -53 63
-81 30z"/>
<path d="M4637 1288 c-29 -39 -60 -98 -54 -104 10 -10 157 10 157 21 0 10 -47
83 -70 108 -4 5 -19 -6 -33 -25z"/>
<path d="M5130 1285 c-31 -37 -168 -117 -267 -156 -106 -41 -109 -43 -148
-102 -22 -33 -57 -73 -77 -90 -34 -27 -47 -31 -141 -38 -100 -8 -124 -14 -177
-44 -21 -12 -28 -12 -45 -1 -50 33 -13 88 46 67 37 -13 199 4 251 26 39 16 71
46 81 76 10 28 -18 32 -53 7 -16 -12 -34 -19 -40 -15 -5 3 -33 -1 -62 -10 -36
-11 -73 -14 -113 -10 -33 3 -87 0 -120 -7 -53 -12 -62 -17 -76 -46 -19 -42
-35 -52 -80 -52 -82 0 -116 76 -63 139 36 43 85 43 125 0 26 -28 30 -30 66
-20 21 6 83 11 138 11 87 0 105 3 142 24 28 16 43 20 46 13 3 -7 8 -5 12 6 4
10 4 21 0 25 -3 4 -64 6 -133 4 -83 -2 -157 3 -212 13 -155 28 -220 15 -261
-52 -31 -50 -23 -132 17 -174 16 -17 37 -35 48 -41 48 -26 530 -13 600 16 19
8 64 50 107 101 63 75 82 91 124 105 82 28 166 74 243 135 73 57 77 62 66 89
-8 20 -28 20 -44 1z"/>
<path d="M5481 1254 l-33 -44 23 -34 c13 -19 36 -42 51 -51 26 -15 29 -15 34
0 9 23 -1 84 -23 132 l-18 42 -34 -45z"/>
<path d="M4742 1177 c-19 -22 1 -39 32 -27 23 9 26 13 16 25 -15 18 -34 19
-48 2z"/>
<path d="M5420 1181 c0 -6 4 -13 10 -16 6 -3 7 1 4 9 -7 18 -14 21 -14 7z"/>
<path d="M5598 1146 c-15 -35 -4 -56 30 -56 40 0 58 23 44 55 -16 34 -58 34
-74 1z"/>
<path d="M4570 1140 c0 -5 7 -10 16 -10 9 0 21 -13 27 -30 9 -25 15 -28 37
-23 36 8 43 18 36 47 -6 24 -11 26 -61 26 -30 0 -55 -4 -55 -10z"/>
<path d="M5352 1127 c-20 -24 25 -59 139 -106 82 -34 108 -57 161 -142 20 -31
47 -65 62 -76 33 -26 33 -33 -1 -34 -21 -1 -13 -6 30 -20 119 -38 210 -51 347
-47 l132 3 33 37 c65 71 54 173 -25 226 -31 21 -42 23 -105 18 -207 -18 -208
-18 -295 4 -47 12 -100 30 -119 41 -74 43 -86 -22 -18 -93 24 -24 52 -58 62
-75 19 -32 52 -53 85 -53 10 0 22 -4 25 -10 8 -14 -48 -13 -79 1 -14 7 -37 31
-52 55 -16 24 -33 44 -39 44 -7 0 -17 10 -23 23 -59 113 -64 118 -142 147 -41
15 -94 37 -117 48 -50 26 -48 26 -61 9z m852 -228 c33 -39 34 -82 1 -114 -50
-51 -155 -23 -155 42 0 21 -4 23 -48 22 -31 -1 -57 4 -75 15 -16 11 -48 18
-83 19 -32 1 -59 7 -61 12 -5 16 94 16 132 1 19 -8 54 -18 77 -21 39 -6 46 -4
72 24 24 25 38 31 72 31 35 0 47 -5 68 -31z m-223 -88 c23 -19 23 -21 9 -48
-28 -51 -110 -39 -110 15 0 16 5 33 12 40 18 18 63 14 89 -7z"/>
<path d="M5910 781 c0 -22 29 -36 43 -22 15 15 0 41 -23 41 -13 0 -20 -7 -20
-19z"/>
<path d="M5710 1081 c0 -9 30 -24 36 -18 2 1 -6 8 -16 15 -11 7 -20 8 -20 3z"/>
<path d="M5092 918 c-16 -16 -15 -53 2 -68 21 -17 58 -8 67 16 15 43 -38 83
-69 52z"/>
<path d="M5205 908 c3 -13 1 -36 -3 -53 -8 -26 -3 -38 30 -87 21 -31 57 -72
80 -90 82 -65 118 -105 118 -131 0 -18 13 -36 43 -60 60 -49 150 -105 181
-113 29 -7 56 9 56 33 0 24 -59 73 -89 73 -32 0 -71 25 -71 47 0 9 -44 61 -97
117 -54 56 -120 136 -148 178 -27 42 -62 84 -78 93 -27 16 -28 16 -22 -7z"/>
<path d="M5013 897 l-22 -10 23 -46 c27 -53 143 -190 199 -235 l38 -31 19 25
c18 24 18 24 -29 79 -26 31 -57 70 -69 87 -14 21 -33 34 -55 38 -40 7 -74 41
-79 77 -3 23 -6 25 -25 16z"/>
<path d="M4270 894 c0 -9 28 -34 38 -34 5 0 15 6 21 14 9 11 7 15 -11 20 -29
7 -48 8 -48 0z"/>
<path d="M4885 854 c-76 -29 -242 -63 -401 -84 -87 -12 -176 -26 -197 -32 -41
-12 -61 -37 -51 -63 8 -20 31 -18 194 18 63 14 167 31 230 38 77 8 125 18 146
30 48 29 87 25 118 -12 33 -38 33 -69 1 -99 -36 -34 -81 -31 -116 8 l-28 31
-93 -10 c-114 -12 -279 -45 -325 -64 -36 -15 -44 -44 -18 -65 13 -11 31 -8
103 13 123 38 190 45 414 49 209 3 222 0 216 -43 -3 -27 14 -26 -218 -14 -184
9 -356 -13 -395 -51 -22 -22 -3 -54 33 -54 56 0 226 43 260 66 44 30 63 30 99
0 24 -20 42 -24 138 -29 178 -9 346 -63 455 -146 57 -43 85 -48 104 -19 13 21
-5 42 -94 108 -57 42 -72 49 -101 44 -39 -5 -47 -1 -157 81 -91 69 -191 182
-230 261 -14 30 -31 54 -37 53 -5 0 -28 -7 -50 -15z"/>
<path d="M5379 812 c28 -51 207 -232 230 -232 7 0 31 -21 54 -46 77 -85 157
-115 170 -64 5 21 -32 56 -123 116 -25 16 -46 37 -48 47 -4 20 25 34 43 21
145 -104 177 -124 198 -124 26 0 40 20 31 44 -14 36 -133 97 -265 137 -74 22
-171 58 -217 79 -59 28 -79 34 -73 22z"/>
<path d="M4827 734 c-12 -12 -8 -51 7 -64 35 -28 93 11 70 48 -11 17 -64 29
-77 16z"/>
<path d="M5295 571 c-9 -28 12 -61 38 -61 35 0 49 15 45 46 -3 25 -8 29 -40
32 -29 3 -38 -1 -43 -17z"/>
<path d="M4770 485 c-21 -25 3 -67 37 -63 34 4 52 31 37 56 -15 23 -57 27 -74
7z"/>
<path d="M4666 430 c-33 -10 -66 -38 -66 -55 0 -32 26 -36 121 -19 175 31 447
-5 547 -71 52 -34 96 -32 100 7 3 23 -4 29 -65 58 -86 41 -227 77 -334 85 -82
7 -85 6 -108 -19 -33 -35 -83 -35 -117 -1 -27 27 -33 28 -78 15z"/>
<path d="M4823 304 c-7 -3 -13 -14 -13 -25 0 -11 6 -22 13 -24 18 -6 215 -27
267 -29 42 -1 45 1 45 24 0 20 -8 27 -40 38 -42 14 -251 26 -272 16z"/>
</g>
</svg>
