<svg version="1.1" id="Layer_1" xmlns="http://www.w3.org/2000/svg" xmlns:xlink="http://www.w3.org/1999/xlink" x="0px" y="0px"
	 width="100%" viewBox="0 0 1024 1024" enable-background="new 0 0 1024 1024" xml:space="preserve">
<path fill="#000000" opacity="1.000000" stroke="none" 
	d="
M455.252289,211.758652 
	C473.584656,209.996216 491.217529,212.409775 508.739532,215.703720 
	C546.379333,222.779572 582.103638,235.042007 614.662109,255.635040 
	C617.845581,257.648590 622.437744,259.692139 619.488831,264.323944 
	C616.717834,268.676392 612.922607,265.248352 609.849365,263.681549 
	C603.917847,260.657562 598.518616,256.651917 592.345093,254.052856 
	C590.665466,253.345718 590.065125,251.889984 589.358521,250.303436 
	C587.247925,245.564133 583.293152,243.386398 578.478088,244.652740 
	C575.799500,245.357208 573.626343,244.878860 571.289429,243.838577 
	C548.664124,233.766846 525.126160,226.731979 500.662811,222.868942 
	C494.424591,221.883865 488.135620,221.204361 481.857208,220.497559 
	C479.313690,220.211227 476.259674,220.159470 475.950287,223.461670 
	C475.613373,227.057663 478.817261,226.903809 481.291718,227.017105 
	C511.657288,228.407333 540.389221,236.178177 567.821716,249.075562 
	C570.728271,250.442093 573.223633,251.968414 574.769043,255.116699 
	C576.603333,258.853333 580.343811,259.930939 584.166748,259.216125 
	C586.937988,258.697968 588.965149,259.525909 591.179749,260.818573 
	C603.141235,267.800781 614.209778,276.126556 625.780457,283.694733 
	C628.765747,285.647339 630.765686,288.234833 628.418274,291.543030 
	C626.195312,294.675842 623.006653,293.494293 620.412659,291.678101 
	C608.942810,283.647339 597.403748,275.713562 585.114746,268.981293 
	C572.993713,262.341095 560.995911,255.429276 548.087524,250.342575 
	C547.003540,249.915421 545.916565,249.495941 544.828247,249.080002 
	C542.713379,248.271759 540.413696,247.528885 539.250061,250.233902 
	C538.066223,252.986023 540.713196,253.604080 542.352051,254.433975 
	C549.779968,258.195435 557.336548,261.705353 564.731201,265.529419 
	C586.426514,276.749023 606.039368,291.161316 625.639221,305.577057 
	C627.872253,307.219452 630.738037,308.998932 628.193604,312.412170 
	C625.915649,315.467987 623.239502,314.361115 620.733948,312.623260 
	C615.942688,309.300110 611.200500,305.906128 606.420105,302.567169 
	C605.148254,301.678833 604.211792,300.600494 603.719971,299.095886 
	C602.470276,295.272522 599.474731,293.463623 595.767090,293.315887 
	C592.528503,293.186798 590.112854,291.792328 587.631836,290.031921 
	C573.732605,280.169647 559.211914,271.392670 543.274719,265.167877 
	C540.990479,264.275696 539.389221,262.667480 537.844482,260.901947 
	C530.019714,251.958984 520.066345,249.859222 508.814972,251.838943 
	C499.682281,253.445877 491.207214,251.924454 483.669006,246.284103 
	C480.077911,243.597107 476.416168,243.393356 473.392029,246.791672 
	C471.123016,249.341400 468.447662,249.975845 465.395844,250.049683 
	C458.722656,250.211166 452.120728,251.005997 445.551697,252.137054 
	C445.224304,252.193436 444.841888,252.323242 444.563690,252.215607 
	C435.156525,248.576309 427.517334,254.239548 419.328369,256.992310 
	C416.254486,258.025604 413.113434,258.484009 411.789551,254.705734 
	C410.408264,250.763611 413.023132,248.724213 416.396912,247.833389 
	C428.823151,244.552277 441.557983,243.143127 454.296326,241.709854 
	C476.961304,239.159683 499.113037,242.511490 521.192749,247.096436 
	C524.443848,247.771545 527.952087,249.121750 531.077087,245.991379 
	C530.003479,243.273926 527.531738,242.989227 525.437805,242.280777 
	C515.438416,238.897583 505.039856,237.326630 494.606140,236.449036 
	C474.649231,234.770447 454.694794,235.001999 434.833313,238.051987 
	C431.469421,238.568542 427.587280,238.905548 426.985992,234.290527 
	C426.428070,230.008652 430.085175,229.225769 433.276520,228.794998 
	C441.527618,227.681244 449.807404,226.802017 458.154327,226.839386 
	C459.820129,226.846848 461.488922,226.861618 463.151428,226.776840 
	C465.280792,226.668259 467.492249,226.082123 467.372894,223.557831 
	C467.259705,221.163452 465.031616,220.479340 462.936066,220.429031 
	C461.119385,220.385437 459.294159,220.816681 457.472900,220.815399 
	C454.876251,220.813568 452.299103,220.330902 451.400360,217.450027 
	C450.468567,214.463150 452.112823,212.735184 455.252289,211.758652 
z"/>
<path fill="#000000" opacity="1.000000" stroke="none" 
	d="
M292.010803,652.681702 
	C303.339874,652.683289 314.170868,652.743408 325.000732,652.658569 
	C329.234192,652.625427 333.292206,653.390991 337.238098,654.765503 
	C354.482544,660.772278 359.313354,680.417053 346.907471,693.931030 
	C346.129059,694.778931 345.391479,695.664185 344.737366,696.414551 
	C344.823975,698.067688 346.049805,698.456055 346.974976,699.102966 
	C356.789337,705.965210 360.826904,715.290100 358.706024,725.651611 
	C356.244904,737.675598 348.214020,743.644104 336.895355,746.202271 
	C329.986298,747.763855 322.969299,747.248901 315.986023,747.284424 
	C305.322388,747.338745 294.657074,747.204529 283.994995,747.342896 
	C280.215851,747.391968 278.616974,746.124268 278.631683,742.149902 
	C278.735931,713.990906 278.726593,685.831177 278.633362,657.672119 
	C278.621460,654.076355 279.776123,652.400574 283.516663,652.656189 
	C286.170074,652.837585 288.846222,652.685547 292.010803,652.681702 
M310.500183,705.365906 
	C306.334259,705.368591 302.167725,705.414673 298.002625,705.357300 
	C295.565948,705.323730 294.251556,706.241333 294.270813,708.844727 
	C294.321289,715.676270 294.320312,722.508484 294.291809,729.340210 
	C294.282288,731.617859 295.276001,732.704895 297.589142,732.694885 
	C308.252838,732.648743 318.932373,732.985657 329.575287,732.503052 
	C337.488953,732.144165 342.487762,726.856384 342.682709,720.030518 
	C342.900055,712.421082 338.801666,707.918274 330.430939,706.212463 
	C324.144409,704.931458 317.811096,705.554810 310.500183,705.365906 
M297.076843,667.365601 
	C294.914581,667.488464 294.339386,668.867249 294.341949,670.757690 
	C294.349884,676.575134 294.384186,682.393127 294.307983,688.209656 
	C294.274048,690.801575 295.501862,691.752136 297.957916,691.734253 
	C306.600525,691.671326 315.258453,691.969360 323.881042,691.539062 
	C329.165131,691.275391 334.078888,689.255798 336.349762,683.829712 
	C339.965149,675.190979 334.350250,667.689148 323.893036,667.389160 
	C315.256775,667.141296 306.608185,667.323059 297.076843,667.365601 
z"/>
<path fill="#000000" opacity="1.000000" stroke="none" 
	d="
M645.986511,345.982117 
	C646.477173,348.680298 644.662842,350.339996 643.139832,352.061951 
	C629.008545,368.038361 612.207581,380.319641 592.228943,387.914490 
	C585.865234,390.333649 580.046021,393.951172 573.393860,396.308502 
	C572.821899,394.828400 572.380432,393.685913 571.859314,392.337250 
	C569.835510,395.333527 568.891052,399.775696 564.226257,397.759064 
	C560.411743,396.109955 560.541992,392.143524 564.112305,387.370636 
	C557.116150,388.311310 556.552856,391.361542 562.133118,399.580139 
	C547.927979,407.008911 534.910828,416.247040 522.601807,426.353729 
	C510.785339,436.055908 500.667053,447.284973 497.616028,463.129791 
	C497.501587,463.724091 497.002075,464.244263 496.287567,465.482513 
	C493.098450,461.656525 493.207245,457.436157 493.563019,453.613831 
	C493.927612,449.696289 495.372650,445.843719 496.629120,442.057007 
	C497.491394,439.458313 499.258331,436.994568 501.974335,436.513397 
	C507.475189,435.538818 509.575287,430.918060 512.731201,427.427551 
	C514.319885,425.670441 513.725891,423.760468 512.472107,421.941986 
	C510.607391,419.237488 511.282898,416.587311 511.938538,413.472595 
	C514.910828,399.352844 528.006470,395.667023 537.507507,388.707886 
	C551.535278,378.433075 568.546631,373.536926 583.958618,365.660400 
	C594.583740,360.230255 604.331360,353.683411 613.266907,345.912567 
	C619.975708,340.078156 623.714294,332.274231 626.682434,324.003021 
	C630.281250,313.974365 635.767151,309.960358 644.095642,310.728943 
	C655.347717,311.767334 661.932251,325.652863 655.642456,335.007538 
	C654.593872,336.567078 653.450500,337.428955 651.500000,336.765411 
	C649.892456,336.218628 648.204041,336.144104 646.568420,336.574188 
	C644.455139,337.129852 642.367920,337.731964 642.063843,340.506927 
	C641.770203,343.186829 642.493713,345.105286 645.655884,345.912048 
	C646.005798,346.001404 645.986511,345.982117 645.986511,345.982117 
M637.532715,338.543152 
	C638.169067,337.251953 638.805420,335.960785 639.430969,334.691528 
	C644.912598,335.392151 648.956360,333.296112 649.772095,329.378204 
	C650.768127,324.594421 648.117004,320.090485 643.600708,318.893829 
	C639.055298,317.689453 635.222717,320.422455 633.677429,326.178711 
	C633.276672,327.671631 632.829102,328.809357 631.511353,329.837891 
	C624.516296,335.297974 624.539612,337.194183 631.368591,342.892944 
	C633.148376,342.425507 634.818787,341.759674 636.286743,339.729553 
	C636.539490,339.465515 636.792236,339.201477 637.532715,338.543152 
z"/>
<path fill="#000000" opacity="1.000000" stroke="none" 
	d="
M553.072144,652.628418 
	C559.715271,654.726929 565.437683,657.681091 570.480103,661.939209 
	C573.163574,664.205261 573.823975,666.405090 570.784912,668.853394 
	C570.527466,669.060791 570.314575,669.324402 570.085510,669.566101 
	C564.117798,675.862183 564.199829,675.730835 556.766479,671.092957 
	C544.129456,663.208496 531.090332,662.994080 518.616638,670.962219 
	C507.064758,678.341675 502.309937,689.692505 503.838348,703.176575 
	C505.522034,718.030823 513.651611,728.199463 528.325378,731.975952 
	C537.028870,734.215942 545.816528,733.233643 554.207825,729.546875 
	C557.561707,728.073303 558.885498,725.908325 558.746216,722.200195 
	C558.490112,715.381470 558.800964,708.542908 558.635193,701.718506 
	C558.550354,698.226257 559.520935,696.536743 563.385742,696.610291 
	C575.390076,696.838867 573.216553,695.872498 573.346741,706.360291 
	C573.452148,714.853088 573.348145,723.348389 573.435669,731.841553 
	C573.461670,734.364990 572.728577,736.183044 570.590942,737.770081 
	C553.510498,750.451843 528.054932,751.944275 510.203796,741.182556 
	C494.394012,731.651367 485.018341,711.149597 487.986420,692.600037 
	C491.462128,670.877563 504.366486,656.616394 525.074890,651.755615 
	C534.323120,649.584778 543.545349,649.858093 553.072144,652.628418 
z"/>
<path fill="#000000" opacity="1.000000" stroke="none" 
	d="
M595.727783,727.980408 
	C591.102539,715.511475 591.004211,703.495422 596.934509,691.854370 
	C603.914551,678.152893 619.857727,671.067566 635.406799,674.436157 
	C651.217468,677.861511 660.391296,688.814148 661.360291,705.421875 
	C662.108643,718.247437 662.108704,718.243591 649.278870,718.252747 
	C637.628235,718.261108 625.977600,718.264343 614.327087,718.308228 
	C612.558167,718.314880 610.699646,717.961243 609.066528,718.907410 
	C610.184204,726.847778 617.059387,732.940186 625.563049,733.732422 
	C632.786682,734.405334 639.409241,732.720276 645.531921,728.838806 
	C649.090881,726.582581 652.722595,727.942993 656.505127,732.949280 
	C659.228027,736.553101 655.655334,738.104919 653.791443,739.710510 
	C635.199341,755.725342 604.723206,749.982361 595.727783,727.980408 
M608.712219,702.954041 
	C608.178711,705.518677 609.897827,705.673279 611.678528,705.675232 
	C622.158691,705.686829 632.638916,705.672974 643.119080,705.680725 
	C645.667358,705.682556 646.648315,704.755798 646.143066,701.982971 
	C644.728699,694.221436 638.411682,688.118958 630.570435,687.289124 
	C619.827942,686.152344 613.035889,690.848572 608.712219,702.954041 
z"/>
<path fill="#000000" opacity="1.000000" stroke="none" 
	d="
M515.912476,523.661133 
	C517.509094,523.787537 519.185486,523.075317 519.666504,524.856689 
	C520.181274,526.762756 518.722839,527.984009 517.438171,529.004150 
	C509.941772,534.956787 501.568909,539.298828 492.541138,542.442505 
	C489.370300,543.546692 486.252899,544.613831 482.807831,543.883423 
	C482.038391,543.720276 481.026550,543.734009 480.378937,544.106018 
	C469.031738,550.625061 456.259949,549.924133 443.948944,550.896179 
	C433.024139,551.758789 421.984467,551.379456 411.000488,551.215332 
	C401.564331,551.074341 394.131104,543.115295 394.871307,534.458984 
	C395.674316,525.068298 404.447021,518.271667 414.079742,520.176331 
	C426.575470,522.647095 439.110535,523.548157 451.801971,522.742126 
	C453.445709,522.637817 455.148346,522.735596 456.759735,523.058594 
	C458.246613,523.356689 459.718323,524.110352 459.490814,526.039001 
	C459.285919,527.775696 458.101532,527.979126 456.545929,527.780212 
	C455.829254,527.688599 454.923676,528.112183 454.281097,528.557861 
	C449.530334,531.852844 444.251892,532.740112 438.640625,532.293091 
	C446.897156,533.445007 454.646179,531.552368 462.105286,528.151611 
	C463.555817,527.490234 464.889465,526.819519 466.247253,527.972412 
	C467.716339,529.219849 467.066650,530.767029 466.338013,532.066895 
	C462.685272,538.582886 456.540039,540.646484 449.615051,541.235901 
	C444.741730,541.650635 439.866608,542.043884 434.855042,542.458130 
	C435.103119,542.893188 435.184540,543.151245 435.258392,543.149109 
	C443.978882,542.895508 452.868500,543.486084 461.260284,540.842163 
	C467.528015,538.867493 470.354980,532.748962 473.520172,527.532715 
	C475.197723,524.768188 477.107635,523.185059 480.138397,522.093323 
	C492.073029,517.794067 503.705505,512.837769 513.333740,504.202759 
	C514.426697,503.222534 515.562134,502.157074 517.472351,502.219055 
	C519.720947,504.859772 521.331848,507.260132 517.548584,510.424377 
	C514.812683,512.712585 514.422546,516.557800 513.311951,519.814819 
	C512.739807,521.492554 513.532166,523.109009 515.912476,523.661133 
M418.253784,540.693298 
	C420.084869,532.316467 428.001343,534.253418 433.752502,531.915161 
	C431.826782,531.137695 430.401093,531.862915 428.994232,532.139404 
	C424.352570,533.051575 419.945740,534.815796 416.388580,529.209839 
	C414.635834,526.447571 410.744904,526.584106 407.840546,528.809998 
	C404.787720,531.149536 402.590271,534.118286 403.829651,538.210571 
	C404.991241,542.046082 408.055725,543.611206 411.889435,543.609436 
	C414.098450,543.608459 416.117249,542.820374 418.253784,540.693298 
z"/>
<path fill="#000000" opacity="1.000000" stroke="none" 
	d="
M571.304504,528.572205 
	C582.986938,534.087646 594.663879,537.236389 607.315918,534.225342 
	C610.852722,533.383667 614.360596,532.378418 618.137146,533.133484 
	C627.421875,534.989929 632.024719,540.804443 631.296875,550.072754 
	C630.639404,558.445679 624.385254,564.154907 615.469604,564.202820 
	C599.910889,564.286316 584.620300,562.400208 569.753479,557.586243 
	C555.656616,553.021484 541.643555,548.287415 529.000488,540.290039 
	C525.400024,538.012634 520.938416,537.309387 517.232971,534.269165 
	C519.327271,531.328796 522.329773,530.154114 524.848999,528.392700 
	C527.168457,526.770935 530.025330,525.571411 531.700439,523.442322 
	C535.927979,518.069275 540.008179,519.083130 545.472107,521.689148 
	C552.687988,525.130798 560.008667,529.398193 568.721252,527.444824 
	C569.373413,527.298584 570.225037,528.041687 571.304504,528.572205 
M619.108765,549.678040 
	C620.774353,547.297791 622.563477,544.886719 619.515747,542.290039 
	C616.450195,539.678162 612.994629,539.572021 609.830322,541.762695 
	C607.446045,543.413330 604.503540,544.837524 606.037781,549.173035 
	C607.329956,552.824646 608.770264,555.310303 612.850586,556.063049 
	C617.883545,556.991516 616.910278,552.301636 619.108765,549.678040 
z"/>
<path fill="#000000" opacity="1.000000" stroke="none" 
	d="
M749.315674,695.053955 
	C751.240723,706.576355 749.894226,717.759888 750.267822,728.896362 
	C750.362732,731.726074 750.281372,734.561646 750.281494,737.394531 
	C750.282104,747.445251 747.944519,749.221741 737.830811,747.188660 
	C734.469543,746.512939 734.877258,744.065247 734.866516,741.798645 
	C734.814392,730.800659 734.907349,719.801514 734.789490,708.804504 
	C734.643494,695.181396 730.410339,689.724365 719.988586,689.383179 
	C708.395325,689.003723 698.891724,697.333008 698.334229,709.057068 
	C697.851868,719.200989 698.085083,729.380066 698.046753,739.543701 
	C698.018005,747.173950 698.001831,747.220886 690.187866,747.226868 
	C682.720703,747.232666 682.711243,747.232605 682.698975,739.898193 
	C682.686951,732.732666 682.697571,725.567200 682.697205,718.401672 
	C682.696533,706.070312 682.845703,693.736145 682.613342,681.409180 
	C682.530396,677.007568 684.066284,675.210693 688.399597,675.726440 
	C689.385193,675.843750 690.407288,675.830566 691.395264,675.721497 
	C695.533264,675.264526 697.856445,676.649719 697.304565,681.235596 
	C697.214172,681.986938 697.494812,682.782959 697.696289,684.214233 
	C709.295593,674.842651 721.639648,670.908325 735.559143,676.739197 
	C743.395508,680.021851 747.558167,686.470947 749.315674,695.053955 
z"/>
<path fill="#000000" opacity="1.000000" stroke="none" 
	d="
M483.508698,580.409790 
	C481.443024,580.194763 479.673920,580.087585 478.307434,581.181519 
	C470.541687,587.398621 460.616699,586.157959 451.850037,588.901978 
	C449.268707,589.709900 447.152954,588.458923 446.246002,585.960022 
	C445.246460,583.205994 446.947235,581.470764 449.253448,580.462280 
	C453.256378,578.711914 457.590515,578.321045 461.859955,577.610291 
	C474.140106,575.565735 486.402069,576.214294 498.682281,577.471863 
	C500.668427,577.675293 502.671753,577.748352 504.669098,577.793152 
	C506.347748,577.830872 507.684479,577.244385 507.700073,575.291870 
	C507.716278,573.257080 506.514160,572.042847 504.572205,572.226135 
	C483.684570,574.197327 462.174408,570.058960 441.947662,578.581116 
	C439.921600,579.434814 437.745239,579.865601 435.674469,578.726746 
	C434.248199,577.942261 433.707703,576.556213 433.723175,574.928711 
	C433.746857,572.437561 435.538818,571.474365 437.442993,570.779053 
	C444.199188,568.311829 451.288452,567.183533 458.316345,565.861450 
	C462.562714,565.062683 466.863770,564.508789 471.161713,564.042908 
	C475.571899,563.564819 479.837646,562.797363 483.256592,567.404602 
	C485.348633,570.223694 489.093597,570.397522 492.323029,568.199951 
	C495.131897,566.288513 495.503510,563.429932 494.359741,560.652039 
	C492.850525,556.986572 489.705994,555.717285 485.791138,556.069031 
	C482.384766,556.375061 480.033203,559.114380 476.517792,559.491333 
	C460.807617,561.175659 445.105377,563.041077 429.926086,567.770935 
	C427.347870,568.574280 425.155762,567.973206 424.139191,565.377014 
	C423.005859,562.482727 424.526123,560.579468 427.144745,559.452332 
	C432.739471,557.044250 438.751404,556.457153 444.691681,555.857117 
	C460.636688,554.246460 476.331940,551.511292 491.491150,546.197205 
	C494.724335,545.063782 496.325928,545.479370 497.903015,548.996521 
	C502.689087,559.670288 510.258484,568.270264 519.545898,575.336365 
	C522.856018,577.854797 526.333374,580.152344 529.675171,582.630615 
	C531.466858,583.959290 533.326538,584.996704 535.619019,584.864746 
	C545.164978,584.315369 550.068604,591.953674 556.493652,596.825378 
	C557.984436,597.955750 558.041565,600.142273 556.813110,601.863220 
	C555.618591,603.536499 553.882812,604.125305 551.959351,603.431396 
	C550.575500,602.932190 549.168030,602.266785 548.029968,601.353027 
	C532.884583,589.193054 514.916748,585.479797 496.223877,584.491699 
	C491.497894,584.241882 487.504395,583.363464 483.508698,580.409790 
z"/>
<path fill="#000000" opacity="1.000000" stroke="none" 
	d="
M531.288757,486.313782 
	C539.946350,477.353394 545.585266,466.734039 551.988647,456.628754 
	C559.178589,445.282257 566.294434,433.869446 575.902771,424.280853 
	C580.616150,419.577148 585.647461,418.980225 590.468201,422.957611 
	C594.397949,426.199890 595.742798,433.478821 591.858215,437.418640 
	C572.088257,457.469482 563.724487,485.278564 544.794739,505.882507 
	C539.870605,511.242096 535.113892,516.540527 529.057556,519.946960 
	C527.211487,518.871033 527.025757,517.575562 527.653687,516.942749 
	C531.093506,513.476074 530.281677,508.509338 532.278992,504.521484 
	C534.973267,499.142090 533.952698,497.460266 526.182434,493.212006 
	C527.018555,490.441864 529.484985,488.816101 531.288757,486.313782 
M582.539795,431.312500 
	C585.211609,430.757538 586.163269,428.991455 585.431702,426.543182 
	C584.924500,424.845703 583.331787,424.964905 582.160156,425.778381 
	C579.853149,427.380096 580.073181,429.295807 582.539795,431.312500 
z"/>
<path fill="#000000" opacity="1.000000" stroke="none" 
	d="
M433.093903,661.380127 
	C435.199860,658.820435 446.268890,657.552429 447.894073,659.412598 
	C449.445923,661.188843 448.867310,663.546936 448.878357,665.676514 
	C448.931274,675.848083 448.911743,675.760254 458.859070,675.932861 
	C461.512238,675.978882 465.219788,674.508850 466.513092,677.784363 
	C467.969330,681.472473 467.442200,685.671387 466.704590,689.603760 
	C466.351654,691.485291 464.451202,691.295776 462.983002,691.317383 
	C459.818756,691.364136 456.645782,691.452820 453.490204,691.276367 
	C450.197937,691.092407 449.095428,692.539612 449.134796,695.705933 
	C449.254913,705.366394 449.114014,715.030090 449.234375,724.690491 
	C449.316711,731.297302 452.796295,733.926758 459.348389,732.441406 
	C461.576233,731.936279 463.709961,731.016052 466.001587,730.247009 
	C468.381989,733.384888 469.350159,736.943420 470.829407,740.235840 
	C471.724976,742.229126 470.290161,743.269165 468.869110,744.270264 
	C454.237823,754.577515 436.050018,746.601990 433.672943,728.926636 
	C432.243469,718.297180 433.038574,707.639038 432.957397,696.995422 
	C432.928680,693.229675 432.320038,690.759888 427.805359,691.279114 
	C424.824249,691.622009 423.538330,690.085449 423.688293,687.139404 
	C423.772858,685.478394 423.836243,683.791382 423.647369,682.146179 
	C423.134521,677.678650 424.394257,675.028687 429.527679,675.632141 
	C431.813171,675.900818 432.852478,674.575806 432.868103,672.327393 
	C432.892395,668.830200 432.965790,665.333313 433.093903,661.380127 
z"/>
<path fill="#000000" opacity="1.000000" stroke="none" 
	d="
M527.435303,286.256104 
	C528.354980,284.399292 528.789185,282.813446 528.662720,281.098022 
	C528.507324,278.989471 528.008728,277.054047 525.611633,276.523193 
	C524.101624,276.188812 523.154053,277.233795 521.750732,280.537048 
	C523.383484,280.095245 524.019043,277.040833 526.069214,278.868713 
	C527.487183,280.132874 527.292664,281.913116 526.832092,283.540771 
	C526.568359,284.472748 526.108887,285.490509 525.424744,286.140289 
	C519.325562,291.932770 518.787170,299.296051 519.618347,306.946167 
	C519.922607,309.747131 520.279968,311.973877 516.433472,312.068573 
	C512.978394,312.153595 511.474670,310.603912 511.864716,307.216400 
	C512.759399,299.445435 511.114746,292.328491 506.554108,285.911316 
	C505.987488,285.114075 505.683228,284.121521 505.308777,283.198608 
	C504.624695,281.512360 503.530457,279.635468 505.614136,278.289337 
	C507.606598,277.002167 508.198700,279.571594 509.894012,280.348602 
	C509.306793,277.613892 507.895264,275.989014 505.430115,276.524841 
	C502.623688,277.134888 502.239014,279.707275 502.532898,282.127380 
	C502.799683,284.324677 504.160309,286.104706 505.494354,287.829651 
	C510.192413,293.904510 510.949310,300.881378 510.152893,308.212860 
	C509.847626,311.023254 508.302582,312.248016 505.462463,312.221985 
	C502.761993,312.197235 501.846893,310.601196 502.016022,308.375031 
	C502.412384,303.159576 499.830231,299.163574 497.211792,295.041718 
	C492.186279,287.130646 489.730255,278.654633 492.960724,269.383698 
	C497.073395,257.580994 509.912109,251.873810 523.473633,255.667191 
	C535.009155,258.893860 541.736023,270.049438 539.471375,281.962738 
	C538.362427,287.796783 535.570801,292.908844 533.017456,298.139404 
	C531.415894,301.420135 529.425049,304.546875 529.171753,308.343536 
	C529.035828,310.380920 528.200928,311.904297 525.906067,312.023285 
	C523.341675,312.156311 521.806335,310.895538 521.350403,308.384247 
	C520.178040,301.926331 520.804626,295.772797 524.584167,290.197937 
	C525.423645,288.959717 526.367737,287.792419 527.435303,286.256104 
z"/>
<path fill="#000000" opacity="1.000000" stroke="none" 
	d="
M568.447815,340.484924 
	C576.476868,345.485352 584.473328,349.912445 591.125610,356.271759 
	C586.370483,361.666107 583.806152,361.904663 578.761780,358.217194 
	C574.195618,354.879333 569.487732,351.731537 564.780151,348.593079 
	C563.125671,347.490082 560.982300,346.148834 559.431152,348.215668 
	C557.669617,350.562927 560.187561,351.804932 561.672119,352.880310 
	C565.038513,355.318787 568.609314,357.472870 572.027893,359.842316 
	C573.760132,361.042999 575.831299,362.015289 576.353333,364.688660 
	C573.143982,367.617767 570.338684,368.595215 566.112610,365.407532 
	C550.031799,353.278168 531.792908,345.993408 511.626953,345.694977 
	C498.946167,345.507324 485.926056,346.430573 474.712219,353.941010 
	C472.783722,355.232574 471.272430,354.357941 469.621521,353.556305 
	C467.584381,352.567169 467.988007,351.048370 468.497742,349.326050 
	C468.974823,347.714081 469.182251,345.943512 467.468933,344.820801 
	C465.988525,343.850739 464.622955,344.599365 463.287109,345.371277 
	C457.466919,348.734406 455.501160,348.462616 449.683838,343.201843 
	C454.558075,338.982086 460.306183,336.373901 465.874908,333.594208 
	C474.985901,329.046326 484.392059,325.187103 494.755768,324.732544 
	C496.803680,324.642731 500.317200,323.446106 500.432831,326.737640 
	C500.524994,329.360748 498.423279,331.916779 495.205902,332.553040 
	C490.804108,333.423553 486.404907,334.307068 482.003204,335.177887 
	C481.513947,335.274658 480.981354,335.236328 480.526917,335.411377 
	C478.059479,336.361755 473.838531,336.112610 474.659271,340.013672 
	C475.573334,344.358124 479.253998,341.917603 481.698669,341.330536 
	C499.621643,337.026428 517.547485,336.314453 535.520203,340.921539 
	C538.422119,341.665375 541.218567,342.595947 543.587646,344.657166 
	C545.510620,346.330231 547.827942,347.617218 550.350647,345.712341 
	C551.864746,344.569061 552.974243,342.995056 552.099182,340.963440 
	C550.907471,338.196716 548.537659,336.840088 545.681580,337.149048 
	C539.606323,337.806274 534.354065,335.259552 528.887085,333.647491 
	C529.508118,326.425964 531.174377,325.180176 537.569397,326.970734 
	C548.373352,329.995819 558.553772,334.458496 568.447815,340.484924 
z"/>
<path fill="#000000" opacity="1.000000" stroke="none" 
	d="
M376.097473,357.908386 
	C388.017883,350.100006 397.132599,360.073456 400.587128,369.001923 
	C402.657684,374.353424 402.053253,379.951813 403.897522,385.206879 
	C404.672546,387.415222 405.334991,389.439758 407.839630,389.730988 
	C412.651489,390.290497 414.646515,394.027222 416.928070,397.436890 
	C417.647797,398.512421 417.795654,400.306976 419.356384,400.303650 
	C424.526978,400.292603 427.750305,403.544128 431.352783,406.585968 
	C437.664673,411.915588 443.865112,409.570831 447.921509,400.599457 
	C450.415405,400.208893 451.752167,401.831848 453.259430,403.810059 
	C450.938965,406.461151 447.088104,408.148193 447.361053,412.461456 
	C447.486938,414.450928 448.660309,415.848633 450.070740,417.062866 
	C453.684814,420.174164 456.992859,419.053436 462.389557,412.931641 
	C463.846527,412.737518 464.485199,413.840637 465.026459,414.811035 
	C468.789154,421.556732 473.776367,427.353363 478.969360,432.995117 
	C480.614960,434.782898 481.887146,436.630615 480.836426,439.249023 
	C477.351013,447.934875 475.181641,456.962738 473.871155,466.214874 
	C473.815186,466.609924 473.300537,466.939972 472.341919,468.087646 
	C469.843079,462.952301 467.692230,458.192413 465.252441,453.585541 
	C459.307343,442.359711 451.996582,432.008057 442.986023,423.113464 
	C437.694244,417.889832 432.234192,412.753723 426.274170,408.144562 
	C416.308136,400.437378 404.982819,395.221741 394.069427,389.234436 
	C390.981781,387.540466 387.540253,386.708862 384.047455,386.386383 
	C376.876923,385.724335 371.671753,382.475525 369.721558,375.305756 
	C367.816772,368.302704 370.248932,362.605011 376.097473,357.908386 
M388.748047,378.300446 
	C390.664093,377.256348 392.454651,376.194275 393.004639,373.760437 
	C394.036865,369.192474 392.052338,365.969208 388.483398,363.615662 
	C385.319916,361.529449 382.020905,361.889618 379.392395,364.604004 
	C376.217285,367.882843 376.166229,371.906769 378.228577,375.670532 
	C380.393250,379.621063 383.959198,380.401917 388.748047,378.300446 
M471.121887,441.414917 
	C471.105988,440.407745 472.274597,439.346283 471.008759,438.342957 
	C468.551605,443.659760 468.704132,444.641144 472.634705,447.800781 
	C472.082733,445.735870 471.587708,443.883911 471.121887,441.414917 
z"/>
<path fill="#000000" opacity="1.000000" stroke="none" 
	d="
M488.647644,286.249695 
	C490.440094,289.943268 489.194275,291.523895 485.683319,291.859985 
	C461.397369,294.184601 441.862427,306.546204 423.582825,321.451630 
	C421.240540,323.361542 419.605286,323.481995 417.819031,321.044769 
	C416.163757,318.786255 414.662537,316.777039 417.804260,314.298920 
	C425.346954,308.349365 433.720001,304.033386 442.703735,300.766907 
	C444.714539,300.035767 448.100922,299.869385 446.770416,296.488586 
	C445.379913,292.955414 442.277954,294.148956 439.988800,295.498444 
	C432.248260,300.061676 424.667542,304.895142 416.972137,309.536499 
	C415.315094,310.535919 413.356934,313.003784 411.579742,309.895020 
	C410.041565,307.204407 408.067657,304.037201 412.150177,301.733948 
	C416.931061,299.036682 421.880157,296.639252 426.696960,294.003357 
	C428.755646,292.876801 432.342682,292.095886 430.930145,288.955841 
	C429.309753,285.353760 426.245728,287.946014 424.032440,288.869110 
	C419.890442,290.596588 415.795074,292.512604 411.902161,294.738251 
	C408.223450,296.841400 405.674652,296.342773 403.804291,292.517853 
	C401.758911,288.334961 405.472137,287.623444 407.723755,286.514008 
	C428.316406,276.367554 449.992432,270.578552 473.086639,270.718262 
	C476.750092,270.740448 480.413940,270.707184 484.077301,270.735992 
	C486.167206,270.752411 488.195099,270.872559 488.151093,273.809235 
	C488.109314,276.593872 486.961334,278.100830 483.982635,278.223297 
	C477.502563,278.489777 471.024261,278.850555 464.554810,279.308533 
	C457.921875,279.778107 451.312012,280.515106 444.819214,282.016754 
	C442.520416,282.548370 439.794495,283.170105 440.649078,286.369324 
	C441.391663,289.149445 443.810547,288.587250 446.057007,288.179962 
	C458.515778,285.921112 471.151520,285.227509 483.733948,284.072754 
	C485.547211,283.906342 487.482941,283.762726 488.647644,286.249695 
z"/>
<path fill="#000000" opacity="1.000000" stroke="none" 
	d="
M607.094055,321.950195 
	C597.758728,314.908081 588.008728,309.141052 578.469116,303.059753 
	C575.626282,301.247528 573.112976,299.141266 570.931030,296.587341 
	C566.096008,290.928131 559.936890,286.963257 553.600098,283.257996 
	C551.690918,282.141632 549.339294,281.108246 547.836609,283.504059 
	C546.249756,286.034027 548.405273,287.436493 550.335083,288.548950 
	C553.506897,290.377289 556.723328,292.128632 559.927307,293.900818 
	C563.337524,295.787048 565.991333,298.322662 568.156860,301.668701 
	C572.083801,307.736328 578.757080,310.625885 584.481812,314.530060 
	C593.835144,320.908752 603.147095,327.332703 612.163208,334.181488 
	C614.252319,335.768402 616.405762,337.267731 613.650330,340.096802 
	C611.428040,342.378448 609.186890,344.507935 606.122437,341.406891 
	C600.083496,335.295959 591.543091,332.048920 586.813416,324.415741 
	C585.809326,322.795197 583.893555,321.789276 582.046082,322.232239 
	C577.668457,323.281860 574.462036,320.927734 570.936218,319.144196 
	C560.665100,313.948547 549.790405,310.253265 538.928406,306.534393 
	C537.072998,305.899139 534.003357,306.109161 535.014282,302.744385 
	C535.930908,299.693634 537.896729,297.843842 541.428467,299.227264 
	C545.453552,300.803894 549.459045,302.432343 553.504944,303.953308 
	C555.468750,304.691589 558.010193,306.135162 559.244324,303.555878 
	C560.505493,300.920227 557.644836,299.917297 555.900208,298.863464 
	C552.044250,296.534241 547.905396,294.764404 543.613037,293.396484 
	C541.959778,292.869629 539.908325,292.385223 540.816956,290.212830 
	C543.190674,284.537933 543.203918,278.591949 542.897888,272.754852 
	C545.791687,271.813507 547.596313,273.281311 549.485352,274.165070 
	C562.499573,280.253571 574.130493,288.687988 586.413452,296.018616 
	C588.082947,297.015015 588.966064,298.387909 589.441589,300.330322 
	C590.326416,303.944122 592.884827,306.284821 596.572876,306.211365 
	C601.160950,306.119934 604.437134,308.438965 607.764282,310.945068 
	C611.353760,313.648743 614.964661,316.326385 618.493225,319.107910 
	C623.413879,322.986725 623.508606,324.394592 619.147095,330.092804 
	C614.746033,328.279816 611.429260,324.636597 607.094055,321.950195 
z"/>
<path fill="#000000" opacity="1.000000" stroke="none" 
	d="
M451.794983,350.129211 
	C458.137299,353.135834 464.464050,355.334137 469.979187,359.147766 
	C470.884369,359.773682 472.098816,360.216187 472.332458,362.020386 
	C466.835541,362.221191 468.073578,365.115845 469.686676,368.537506 
	C472.758881,375.054230 477.150452,380.014709 483.506714,383.731934 
	C489.203644,387.063507 494.342834,391.430664 499.426453,395.700104 
	C502.777740,398.514709 505.671021,399.400208 509.634216,396.837402 
	C512.288879,395.120758 515.245667,393.358307 519.110107,393.765076 
	C518.622437,397.398499 515.394958,397.940155 513.428833,399.588715 
	C510.395203,402.132233 507.664032,406.193787 503.936584,406.441559 
	C500.240234,406.687286 498.059692,402.053986 495.210999,399.616913 
	C480.260162,386.826294 462.564056,379.254669 444.453766,372.480347 
	C439.720123,370.709686 437.963654,367.924438 437.706085,362.849884 
	C437.227386,353.417603 434.806030,352.928955 428.507355,352.862457 
	C425.612274,352.831940 422.729919,351.598633 419.696716,350.876190 
	C419.571350,349.110931 419.659515,347.442291 419.293152,345.880249 
	C418.750519,343.566650 419.730347,342.745087 421.758606,341.878998 
	C427.531830,339.413635 432.691986,339.749298 438.071136,343.309692 
	C442.194824,346.039124 446.970459,347.783478 451.794983,350.129211 
z"/>
<path fill="#000000" opacity="1.000000" stroke="none" 
	d="
M410.028900,352.046570 
	C408.152161,353.318237 406.955505,352.117249 405.751129,350.885040 
	C395.650665,340.551270 385.559814,330.224609 378.784180,317.210968 
	C376.046936,311.953613 373.722107,306.759430 375.640472,300.605591 
	C377.581757,294.378082 381.784882,290.732422 388.083038,289.870453 
	C394.384399,289.008087 399.606293,291.204285 402.792236,296.977234 
	C403.983124,299.135101 404.971100,301.492432 405.560394,303.880066 
	C408.452698,315.598541 414.750549,325.127594 423.745422,333.016418 
	C424.842377,333.978516 426.157898,334.840851 426.576660,337.085388 
	C422.598022,338.352631 419.279663,341.373596 414.350433,340.532990 
	C409.674347,339.735474 406.445831,345.659943 409.021088,351.012146 
	C409.650513,351.595367 409.845947,351.815430 410.028900,352.046570 
M394.217438,323.290649 
	C394.823853,319.565765 389.745636,318.622131 390.092499,314.965485 
	C392.740814,312.216339 395.349213,312.301605 397.629059,315.233521 
	C399.338928,317.432434 400.723114,319.884613 402.252289,322.224030 
	C402.277222,321.066040 401.951416,320.126434 401.451172,319.291260 
	C398.964722,315.139893 396.074097,311.442078 398.118622,305.766693 
	C399.132721,302.951660 396.597321,299.896942 393.404083,298.357391 
	C390.739197,297.072510 388.241150,297.073547 385.987732,299.017975 
	C383.446442,301.210815 382.121735,304.002838 382.892242,307.418182 
	C383.635712,310.713654 385.144714,313.599274 387.705109,315.932495 
	C390.030792,318.051819 392.239380,320.308899 394.217438,323.290649 
z"/>
<path fill="#000000" opacity="1.000000" stroke="none" 
	d="
M411.946960,477.322266 
	C411.944763,488.035339 403.407074,491.872101 396.940216,497.137726 
	C394.560120,499.075684 391.352356,500.046112 388.998230,496.835754 
	C386.635162,493.613098 388.660767,491.183533 391.108368,489.166626 
	C401.989655,480.199677 409.313293,468.519684 416.077759,456.431519 
	C417.109497,454.587677 419.243988,452.087524 415.897003,450.542358 
	C413.017975,449.213165 411.680664,451.674011 410.709229,453.835327 
	C406.377319,463.473022 400.581390,472.162109 393.840179,480.253937 
	C393.201843,481.020203 392.614227,481.845245 391.887604,482.518280 
	C389.846130,484.409119 387.495453,485.201782 385.197052,483.192413 
	C382.906067,481.189545 383.245544,478.665161 384.958832,476.479614 
	C388.445984,472.031250 392.150116,467.753632 395.666626,463.327606 
	C406.695953,449.445679 414.679626,433.655365 423.691589,418.508087 
	C424.953674,416.386841 425.710144,413.268738 429.556549,415.768127 
	C433.006866,418.010193 433.430664,420.061340 431.001129,423.377716 
	C427.712646,427.866669 426.124542,433.425354 421.154938,436.921143 
	C417.929016,439.190399 418.572662,442.910248 421.836090,444.814575 
	C426.190735,447.355713 426.088074,450.522125 424.648712,454.479553 
	C423.114594,458.697418 421.505463,462.909424 420.342499,467.235077 
	C419.095825,471.872162 413.723999,472.788239 411.946960,477.322266 
z"/>
<path fill="#000000" opacity="1.000000" stroke="none" 
	d="
M541.237610,380.597046 
	C530.448181,375.168365 519.464233,372.353699 507.656616,373.191528 
	C504.600952,373.408325 501.643280,372.892181 499.157501,370.925323 
	C498.152130,370.129791 497.207611,369.367462 497.340942,367.675201 
	C497.771881,362.206818 496.916595,361.197021 491.418640,362.309845 
	C485.480286,363.511780 481.856812,360.072632 477.330200,357.205933 
	C499.857117,344.921021 549.633423,353.144592 563.209290,371.174774 
	C559.250305,374.100189 555.615967,375.816315 550.723267,372.383698 
	C543.886719,367.587311 536.349792,363.984711 528.137573,362.031097 
	C527.010559,361.763000 525.862427,361.509979 524.711853,361.434113 
	C523.330017,361.342987 521.891357,361.584747 521.544189,363.202759 
	C521.166870,364.961670 522.597595,365.412537 523.893188,365.842804 
	C527.682251,367.101044 531.570984,368.123199 535.236145,369.674072 
	C539.754883,371.586182 544.269531,373.656433 547.916199,377.242218 
	C546.048828,379.525299 544.018982,380.484680 541.237610,380.597046 
M503.736816,364.916779 
	C504.775757,366.094604 506.059814,366.719818 507.651001,366.704529 
	C510.182373,366.680176 512.138977,365.653137 513.253296,363.343567 
	C513.974976,361.847748 513.581970,360.439758 512.484985,359.237610 
	C510.726837,357.311066 508.473755,356.776154 506.170410,357.724762 
	C503.247925,358.928314 501.541046,360.961517 503.736816,364.916779 
z"/>
<path fill="#000000" opacity="1.000000" stroke="none" 
	d="
M401.999451,715.000000 
	C402.022003,724.322937 401.974670,733.146912 402.102570,741.968323 
	C402.156738,745.704590 400.817535,747.451233 396.844849,747.317505 
	C387.324982,746.997070 385.827820,749.253601 386.268097,736.979614 
	C386.929718,718.535645 386.668304,700.052795 386.505768,681.589111 
	C386.465546,677.020081 387.880890,675.508972 392.470764,675.605347 
	C401.993256,675.805359 401.997833,675.583862 401.998413,685.034302 
	C401.999023,694.856201 401.999756,704.678101 401.999451,715.000000 
z"/>
<path fill="#000000" opacity="1.000000" stroke="none" 
	d="
M639.874878,503.641022 
	C638.284851,506.057434 636.247925,506.804291 634.018127,505.964172 
	C628.659668,503.945282 622.580688,503.234009 618.970032,497.871979 
	C617.795288,496.127502 615.877319,495.889832 614.034668,496.572815 
	C612.369995,497.189789 612.209534,498.794739 612.263977,500.356598 
	C612.343933,502.649719 613.473267,504.395508 615.752869,504.518127 
	C621.736023,504.839905 626.821960,507.992767 632.431396,509.454712 
	C634.461121,509.983704 636.405090,510.926819 635.955872,513.484192 
	C635.488831,516.142944 633.567139,517.713135 630.926147,517.268738 
	C621.102234,515.615601 610.298645,513.139648 604.762573,505.367493 
	C600.558105,499.464905 597.767456,494.015289 590.348022,491.875702 
	C588.322388,491.291534 586.600464,488.250641 585.958679,485.572327 
	C594.102051,478.112244 594.109436,477.126587 586.163879,468.117310 
	C580.810364,462.047089 582.940796,450.803101 590.741577,446.578217 
	C592.067261,457.193665 596.700317,466.609589 599.824280,476.515930 
	C601.064270,480.447876 603.299805,483.083893 606.935730,484.984589 
	C616.243591,489.850311 625.773621,494.177307 635.642883,497.767792 
	C638.192627,498.695435 640.862549,499.610352 639.874878,503.641022 
z"/>
<path fill="#000000" opacity="1.000000" stroke="none" 
	d="
M638.921265,463.275940 
	C632.321716,459.343903 627.390564,455.017883 629.208435,446.471436 
	C629.844238,443.482361 627.510803,441.169739 624.615784,440.105682 
	C622.531982,439.339783 620.622070,440.022156 619.350769,441.851532 
	C617.609619,444.356934 618.470581,446.845886 620.363220,448.616943 
	C622.518005,450.633270 623.884155,453.046234 625.000061,455.610626 
	C627.885010,462.240326 632.666809,466.722198 639.415894,469.254272 
	C641.585449,470.068237 643.666382,471.157166 645.703979,472.273499 
	C647.851624,473.450195 648.807373,475.318451 647.908752,477.721619 
	C647.022461,480.091797 644.864563,481.366943 642.724915,480.508698 
	C632.662842,476.472565 620.937744,474.999573 616.623230,462.276672 
	C613.640381,453.480743 609.716675,444.991608 605.970215,436.472351 
	C604.208313,432.465759 606.718262,431.125153 609.404846,429.572144 
	C612.488342,427.789703 613.437622,430.031555 614.652710,432.136353 
	C615.679688,433.915192 615.994507,436.354034 618.809814,437.014893 
	C620.913269,434.560181 619.008606,432.356384 618.221497,430.244934 
	C616.054016,424.430847 616.490601,423.612946 623.700256,422.053497 
	C626.062134,429.647278 631.223633,435.838837 635.012207,442.815979 
	C638.227661,448.737457 641.701599,454.274902 647.921265,457.594482 
	C650.265198,458.845520 651.833740,461.014160 650.291321,463.818237 
	C648.823608,466.486664 646.403381,466.627228 643.807495,465.482910 
	C642.287537,464.812897 640.778259,464.118408 638.921265,463.275940 
z"/>
<path fill="#000000" opacity="1.000000" stroke="none" 
	d="
M459.535400,504.458740 
	C458.102417,507.319916 456.839203,509.851166 455.581757,512.385315 
	C451.765839,520.075806 451.445587,520.238647 442.370728,519.007996 
	C441.857391,516.736023 443.583557,515.356750 444.610443,513.772278 
	C450.563324,504.587372 454.620667,494.636719 456.720093,483.910156 
	C457.026154,482.346405 458.300171,479.925781 455.409790,479.447418 
	C452.689362,478.997162 452.083374,481.089081 452.117798,483.297791 
	C452.333344,497.116333 444.295532,507.285522 436.936890,517.761719 
	C436.188324,518.827393 435.151489,519.298096 433.930786,519.164978 
	C430.192963,518.757446 426.464233,518.266296 422.527557,517.121399 
	C427.003357,513.051331 428.669067,506.103149 436.592712,506.414490 
	C441.007690,506.587982 443.923279,502.250977 442.496002,497.994873 
	C441.545959,495.161865 441.947723,492.858582 442.921692,490.343628 
	C447.748260,477.880737 450.771912,464.959930 452.738495,451.765167 
	C453.027863,449.823761 453.625397,447.928284 454.393097,444.694244 
	C457.929840,449.120148 461.643860,452.053650 461.344757,457.441132 
	C460.797363,467.300140 461.433868,477.087799 464.072510,486.605347 
	C465.419220,491.463013 465.059204,495.680176 462.103912,499.755676 
	C461.135651,501.090912 460.497101,502.665222 459.535400,504.458740 
z"/>
<path fill="#000000" opacity="1.000000" stroke="none" 
	d="
M415.252502,423.197327 
	C407.652771,437.096283 400.264893,450.697388 390.573212,462.862488 
	C389.848328,463.772369 389.126892,464.689850 388.338318,465.543213 
	C386.069397,467.998505 383.481171,469.440460 380.627441,466.622375 
	C378.019409,464.046936 379.045166,461.393585 381.353943,459.222931 
	C389.189789,451.855835 393.814514,441.998535 400.955902,434.094055 
	C402.359711,432.540314 402.961029,430.633026 401.787781,428.574463 
	C400.861603,426.949432 399.396515,426.175323 397.618561,426.474030 
	C395.340210,426.856812 394.398010,428.564514 394.045349,430.717682 
	C392.955658,437.371002 388.726044,442.449219 385.288300,447.906433 
	C383.748901,450.350220 381.310669,451.188110 378.835022,449.596771 
	C376.316467,447.977875 376.202698,445.424652 377.832794,443.032288 
	C381.109863,438.222870 384.689423,433.613495 387.841461,428.726379 
	C392.980225,420.758911 397.814423,412.595612 402.897369,404.591339 
	C406.121796,399.513824 406.726227,399.522308 411.844269,403.885529 
	C409.696960,407.840912 407.448578,411.841614 405.353180,415.920898 
	C404.645111,417.299347 403.327240,419.178894 405.570221,420.197998 
	C407.346008,421.004822 408.119720,419.140717 408.862976,417.891968 
	C410.649689,414.890045 412.352722,411.838440 414.114594,408.821533 
	C415.662750,406.170471 417.567108,406.187714 419.895172,407.923370 
	C422.003296,409.495117 423.293671,410.865112 421.249939,413.586639 
	C419.063080,416.498749 417.343842,419.761963 415.252502,423.197327 
z"/>
<path fill="#000000" opacity="1.000000" stroke="none" 
	d="
M613.088989,525.105652 
	C599.775879,520.009399 586.906677,514.993713 577.214844,504.344727 
	C571.861694,498.462891 569.363525,491.300781 567.076599,483.972595 
	C566.888428,483.369568 566.868103,482.602600 567.063416,482.008270 
	C569.724304,473.913086 573.833496,466.606110 579.290039,459.024719 
	C581.144165,463.882660 582.542358,467.431122 578.692810,471.420776 
	C575.028870,475.218079 575.528503,479.877472 578.941650,484.042419 
	C580.946228,486.488525 582.866577,489.003571 584.856995,491.461548 
	C586.596008,493.609009 587.361328,495.885620 587.262939,498.791931 
	C587.028687,505.711945 590.470947,509.005676 597.250122,508.711456 
	C599.321289,508.621613 601.171509,508.833862 602.992004,509.874695 
	C610.241516,514.019409 617.811584,517.434509 625.784363,519.981323 
	C628.105469,520.722717 630.980591,521.644958 630.010010,525.046997 
	C629.097046,528.247131 626.262939,528.758301 623.509521,528.175598 
	C620.105286,527.455017 616.806702,526.235291 613.088989,525.105652 
z"/>
<path fill="#000000" opacity="1.000000" stroke="none" 
	d="
M422.376282,497.377991 
	C427.743896,491.551941 430.892731,484.660828 435.116119,478.491760 
	C437.029633,475.696747 436.480927,472.822296 435.542236,469.616119 
	C439.567749,468.240875 439.771057,465.088135 439.715393,461.564850 
	C439.580719,453.037384 441.388733,444.722382 442.970154,436.401581 
	C443.262848,434.861542 443.432190,433.040192 445.167053,432.162567 
	C450.680298,435.690125 451.860901,439.435455 450.467499,445.150269 
	C447.635376,456.765808 445.586700,468.579010 442.555115,480.137604 
	C438.689117,494.877319 428.872406,505.697388 417.173767,514.695557 
	C413.160919,517.782104 407.642487,516.990295 401.381653,516.254333 
	C408.465149,508.934265 416.367615,504.434753 422.376282,497.377991 
z"/>
<path fill="#000000" opacity="1.000000" stroke="none" 
	d="
M538.511353,552.683044 
	C537.960876,551.701050 537.599548,550.993469 537.248352,550.305725 
	C538.857300,549.040710 539.987305,550.066040 541.079285,550.652771 
	C551.097412,556.036072 561.751709,559.784851 572.740601,562.483398 
	C579.702271,564.192993 585.672668,567.618225 591.395813,571.649536 
	C594.015808,573.494934 597.019531,575.701294 594.291260,579.297913 
	C591.661194,582.765076 588.617859,580.727051 585.980591,578.860718 
	C581.508606,575.695923 577.116943,572.417480 572.696777,569.179626 
	C571.527527,568.323059 570.301636,566.760742 568.897095,568.439148 
	C567.479858,570.132812 568.639648,571.521057 570.142090,572.550354 
	C574.252136,575.366028 578.430237,578.085876 582.477295,580.988770 
	C584.637756,582.538330 586.195068,584.562988 584.303345,587.320312 
	C582.549133,589.877258 580.095581,589.703369 577.658752,588.524170 
	C575.873352,587.660217 574.008179,586.764038 572.541138,585.470886 
	C560.797302,575.119324 547.748230,566.115051 538.511353,552.683044 
z"/>
<path fill="#000000" opacity="1.000000" stroke="none" 
	d="
M468.588928,264.805298 
	C447.365753,265.109314 427.637360,270.228180 408.364563,277.513824 
	C407.122284,277.983490 405.839966,278.369354 404.549469,278.684418 
	C402.265381,279.242126 400.650940,278.272400 399.647827,276.249786 
	C398.499084,273.933716 399.062378,271.715515 401.198761,270.605621 
	C409.225250,266.435669 417.876007,263.992676 426.702667,262.214417 
	C427.643707,262.024841 428.865204,262.896851 429.874115,263.431915 
	C434.204926,265.728668 437.953125,265.159180 440.785492,261.054840 
	C442.033813,259.245880 443.631500,258.199829 445.671906,257.964874 
	C452.775787,257.146790 459.891876,256.431610 467.007751,255.721954 
	C469.217468,255.501587 471.165375,256.077087 473.128815,257.305176 
	C476.599518,259.476013 480.661469,260.176147 483.856079,257.331207 
	C487.523590,254.065063 490.977936,254.564056 494.866608,256.150085 
	C492.831818,262.789551 490.893921,264.344452 484.523956,264.474335 
	C479.366119,264.579529 474.207611,264.651123 468.588928,264.805298 
z"/>
<path fill="#000000" opacity="1.000000" stroke="none" 
	d="
M601.813477,467.097809 
	C599.608398,460.760254 597.540222,454.792114 595.395020,448.851807 
	C593.072510,442.420746 593.657959,440.890778 600.080139,437.404633 
	C602.160156,438.769623 602.553223,441.162994 603.379272,443.258240 
	C606.488770,451.145142 609.601501,459.032135 612.574158,466.971069 
	C614.307739,471.600616 617.311829,474.872223 621.829285,476.845215 
	C628.074402,479.572693 634.299988,482.345642 640.517456,485.135681 
	C643.188782,486.334351 646.019470,487.754028 644.524536,491.362457 
	C643.132629,494.722229 640.241394,494.457947 637.311951,493.399872 
	C627.116516,489.717560 617.395935,484.981323 607.988220,479.663788 
	C603.495728,477.124481 603.684082,471.685699 601.813477,467.097809 
z"/>
<path fill="#000000" opacity="1.000000" stroke="none" 
	d="
M577.265015,229.897034 
	C558.409302,220.693481 539.060730,214.426834 518.510315,212.137177 
	C517.027344,211.971970 515.568970,211.591171 514.096863,211.323029 
	C511.482422,210.846802 509.663910,209.464844 509.986145,206.643524 
	C510.296570,203.925720 512.251709,202.648819 514.921143,202.725143 
	C523.785828,202.978531 532.376953,205.010330 540.906555,207.153824 
	C554.805847,210.646713 568.270874,215.446625 581.263794,221.527084 
	C582.317566,222.020248 583.383179,222.501953 584.386108,223.086990 
	C586.771912,224.478561 588.374573,226.507172 587.112854,229.256302 
	C585.768860,232.184708 583.177917,232.525848 580.341980,231.275909 
	C579.428894,230.873444 578.516357,230.469696 577.265015,229.897034 
z"/>
<path fill="#000000" opacity="1.000000" stroke="none" 
	d="
M533.497559,567.546021 
	C531.402466,565.609741 529.493286,563.989746 527.760681,562.198975 
	C521.819824,556.059021 518.218445,549.163391 521.363281,540.088135 
	C525.171509,540.416382 527.620361,543.104858 529.489319,546.220398 
	C535.712158,556.593506 543.495300,565.619568 552.465515,573.678162 
	C554.443054,575.454712 555.987122,577.390198 556.760132,580.171753 
	C557.495972,582.819519 559.863281,584.552856 562.860229,584.386658 
	C564.430298,584.299561 565.816162,584.248291 567.052673,585.333679 
	C569.827515,587.769165 574.584412,589.844666 571.829773,594.350647 
	C569.201416,598.650024 565.018188,596.212585 561.662476,594.401978 
	C556.082031,591.391174 550.968994,587.658264 546.145996,583.550049 
	C545.028320,582.598022 543.335876,581.350952 543.326172,580.227356 
	C543.268250,573.536682 538.140564,570.997253 533.497559,567.546021 
z"/>
<path fill="#000000" opacity="1.000000" stroke="none" 
	d="
M626.442627,408.435181 
	C628.439697,405.943115 630.204529,403.761963 633.073364,402.797333 
	C635.227173,402.073181 637.254700,400.879272 636.524719,398.149109 
	C635.836975,395.576843 633.616089,395.239899 631.296814,395.448486 
	C630.296631,395.538422 629.292603,395.669220 628.030029,393.819580 
	C633.720642,390.211639 636.062927,383.187347 642.358765,379.862915 
	C646.013367,377.933105 649.824280,377.207977 653.933289,378.393829 
	C660.805115,380.377045 665.286804,386.315063 664.947937,393.191315 
	C664.565186,400.958344 659.174622,408.217621 651.949280,407.807678 
	C641.382874,407.208191 632.989380,411.919006 624.134644,416.030792 
	C622.859497,416.622955 621.625854,417.765381 619.675537,416.987976 
	C620.406433,413.041962 624.740417,411.942566 626.442627,408.435181 
M641.223511,395.128845 
	C642.579468,400.249115 645.080383,402.080414 649.994995,401.551758 
	C654.745728,401.040741 657.667236,397.945007 657.731995,393.353455 
	C657.800842,388.473236 654.681458,385.315918 649.663635,385.186859 
	C644.010498,385.041412 641.457031,387.786621 641.223511,395.128845 
z"/>
<path fill="#000000" opacity="1.000000" stroke="none" 
	d="
M485.997681,306.136353 
	C480.728241,306.924591 476.102692,309.242371 470.913666,307.505707 
	C468.613403,306.735870 466.417145,308.324432 464.677185,309.986572 
	C455.324921,318.920258 442.952362,323.399139 432.985168,331.515808 
	C429.517639,334.339600 427.410858,329.752380 424.511780,327.460205 
	C428.336121,323.339172 432.692139,320.375153 436.999878,317.422180 
	C451.970764,307.159454 467.893860,299.054993 486.202515,296.754547 
	C493.166412,295.879517 493.810089,296.466034 495.793793,303.601044 
	C493.161011,306.213806 489.394043,304.704895 485.997681,306.136353 
z"/>
<path fill="#000000" opacity="1.000000" stroke="none" 
	d="
M512.026367,461.596619 
	C512.270874,460.897217 512.378357,460.574463 512.554932,460.295410 
	C517.635925,452.266815 517.566895,451.862061 509.701630,446.044800 
	C511.695587,441.877930 514.628296,438.369446 518.325623,435.554901 
	C520.710938,433.739136 522.362183,435.462646 523.621521,437.396515 
	C526.856262,442.363953 528.614685,447.902557 529.639771,453.686768 
	C531.108521,461.975098 530.570435,470.265411 529.475281,478.540161 
	C529.257996,480.181946 528.943481,481.846832 526.777039,483.458984 
	C523.146606,478.192963 522.965515,472.274445 523.280884,466.484558 
	C523.589417,460.819183 523.650696,455.166931 523.677063,449.505219 
	C523.688721,446.990692 523.273926,444.605316 521.468262,442.475922 
	C518.275818,443.948486 519.187927,446.535522 519.564941,448.576080 
	C520.116638,451.561859 520.575256,454.559357 520.096985,457.510345 
	C518.485840,467.450928 519.254211,477.061951 523.231140,486.388702 
	C524.694824,489.821350 522.599182,491.582794 519.440369,493.168915 
	C512.664307,483.656860 510.300201,473.330627 512.026367,461.596619 
z"/>
<path fill="#000000" opacity="1.000000" stroke="none" 
	d="
M554.330200,326.750916 
	C548.949646,324.843506 544.023621,322.651459 538.866760,321.449738 
	C533.368286,320.168396 532.116943,316.920197 532.753113,312.105591 
	C533.732117,311.262787 534.791382,311.520599 535.706482,311.750488 
	C548.167786,314.880554 560.215332,319.215637 572.011841,324.283325 
	C573.776917,325.041534 574.301025,326.224609 574.514160,328.115082 
	C575.158447,333.831909 578.967957,336.360046 584.657166,335.098572 
	C585.955872,334.810608 587.314636,334.090912 588.512329,334.944427 
	C593.868958,338.761932 599.527832,342.239685 603.915344,347.230194 
	C598.911316,352.818756 598.173645,352.823669 592.979309,349.253967 
	C580.768982,340.862610 568.745422,332.128723 554.330200,326.750916 
z"/>
<path fill="#000000" opacity="1.000000" stroke="none" 
	d="
M515.282227,591.514160 
	C522.519775,593.225830 529.026306,595.729614 535.223511,599.006287 
	C537.824707,600.381592 540.417419,602.195862 538.597656,605.616699 
	C536.804565,608.987549 533.720093,608.757263 530.820801,607.111267 
	C510.985840,595.850037 489.882782,594.822632 468.069122,599.114929 
	C465.285461,599.662659 462.078644,600.241577 461.029846,596.479919 
	C460.051697,592.971741 462.702454,591.321106 465.341827,590.128174 
	C469.130585,588.415649 472.761017,587.599915 476.213501,591.370117 
	C478.527649,593.897278 482.270142,594.823975 484.772614,592.265991 
	C489.520203,587.412903 495.177856,588.518188 500.663544,588.935608 
	C505.437103,589.298767 510.142487,590.557983 515.282227,591.514160 
z"/>
<path fill="#000000" opacity="1.000000" stroke="none" 
	d="
M602.229248,525.689636 
	C605.050415,526.995605 608.129211,526.926514 610.447083,529.682373 
	C599.913269,533.667175 590.242188,532.364563 581.182617,526.909912 
	C576.953247,524.363464 573.312134,520.838623 570.335876,516.773438 
	C568.944519,514.873047 567.431213,513.094421 565.033813,512.452576 
	C562.896484,511.880341 560.117371,512.390747 559.638123,509.149017 
	C558.949402,504.490295 553.966614,500.499329 557.691833,495.116699 
	C559.359436,492.707245 560.253967,489.769714 563.198608,486.813660 
	C567.932190,508.473938 583.146851,518.846558 602.229248,525.689636 
z"/>
<path fill="#000000" opacity="1.000000" stroke="none" 
	d="
M480.083588,509.737976 
	C479.712555,509.179688 479.585632,508.815155 479.329407,508.641998 
	C467.875214,500.902008 468.827820,487.866547 465.695435,476.596619 
	C464.719666,473.085907 464.116547,469.464233 465.161621,465.468384 
	C467.463501,466.235199 467.782349,468.344849 468.622040,469.945953 
	C475.416565,482.901764 479.650726,497.097870 487.806152,509.404114 
	C490.113831,512.886353 489.145081,515.258667 484.974457,516.353882 
	C482.897552,516.899231 480.920624,517.834351 478.912262,518.628052 
	C477.644409,519.129089 475.811615,519.855225 475.135559,518.874573 
	C470.967773,512.828308 465.426758,515.793030 460.241760,516.257996 
	C459.613708,516.314331 458.963074,516.118713 458.310150,516.038269 
	C459.438293,510.094452 463.611053,503.109100 467.529541,500.615936 
	C472.713013,504.211060 473.613861,512.120544 480.336304,514.294434 
	C482.238739,512.480957 480.664124,511.303711 480.083588,509.737976 
z"/>
<path fill="#000000" opacity="1.000000" stroke="none" 
	d="
M480.786926,321.824768 
	C468.594391,325.687286 457.663971,331.199463 447.482300,338.228973 
	C442.268372,341.828735 440.899139,341.560699 436.419952,335.772675 
	C443.856934,329.392426 452.392242,324.703979 460.866150,319.925507 
	C462.492249,319.008575 463.646851,320.179565 464.975311,320.818542 
	C470.687531,323.566345 475.343811,321.686768 477.642365,315.682220 
	C478.065063,314.578003 478.227509,313.330048 479.495758,312.941925 
	C484.910919,311.284698 490.502747,310.505585 496.119171,310.085571 
	C498.062469,309.940216 498.299866,311.815002 498.219147,313.382568 
	C498.082520,316.035187 497.343201,318.361084 494.324951,319.002106 
	C489.945862,319.932190 485.552307,320.794373 480.786926,321.824768 
z"/>
<path fill="#000000" opacity="1.000000" stroke="none" 
	d="
M429.460236,449.680908 
	C432.094147,444.402405 433.831635,439.926178 431.257721,433.915741 
	C429.841980,430.609711 433.741974,426.461975 436.124481,422.903748 
	C440.235748,425.152802 442.264313,427.310730 440.496857,432.187683 
	C437.541046,440.343689 437.221588,449.086609 436.401794,457.667999 
	C436.176453,460.027161 436.405426,462.193970 433.539856,463.308655 
	C431.084381,464.263733 431.375549,467.218933 430.067139,469.155365 
	C431.882568,471.608765 435.217377,473.590881 433.064178,477.270203 
	C431.916168,479.231934 429.832489,480.565460 427.578125,479.811188 
	C423.562592,478.467651 424.259338,474.981232 423.912842,471.577332 
	C423.366272,466.207458 426.187286,462.013000 427.452209,457.289825 
	C428.096222,454.885010 428.719177,452.474518 429.460236,449.680908 
z"/>
<path fill="#000000" opacity="1.000000" stroke="none" 
	d="
M413.937164,479.611420 
	C413.707916,476.112366 415.705475,474.847687 418.315826,474.165436 
	C421.210297,473.408905 422.134186,475.503754 422.926575,477.555420 
	C423.846558,479.937347 426.323944,480.572815 428.264160,482.469421 
	C421.710114,494.397705 412.836121,503.821075 400.320007,509.569733 
	C398.024109,510.624176 396.100769,510.190369 394.744354,507.986023 
	C393.096893,505.308563 394.520508,503.389587 396.708313,502.221558 
	C405.014526,497.787292 411.196625,490.726257 418.803345,484.817596 
	C417.025970,483.262207 414.653717,482.393707 413.937164,479.611420 
z"/>
<path fill="#000000" opacity="1.000000" stroke="none" 
	d="
M391.469208,665.061096 
	C384.343475,662.314270 381.513153,657.665588 382.916840,651.589050 
	C384.065521,646.616211 388.782379,643.130981 394.012756,643.390259 
	C400.192444,643.696594 404.490082,648.357849 404.303589,654.551758 
	C404.104645,661.158936 399.558472,665.031677 391.469208,665.061096 
z"/>
<path fill="#000000" opacity="1.000000" stroke="none" 
	d="
M504.920502,540.323669 
	C505.823914,539.640869 506.491089,539.171082 507.510864,538.453064 
	C508.101379,540.400940 506.447083,541.241089 506.176636,542.508728 
	C505.294159,546.645020 507.863159,550.699707 512.683228,551.463196 
	C515.470581,551.904663 517.093384,553.040405 518.456421,555.399719 
	C520.791687,559.441956 523.863220,562.957336 527.120361,566.310486 
	C531.470154,570.788513 531.422668,571.155457 526.567444,575.917480 
	C522.813477,574.465698 520.010254,571.563782 517.265991,568.772949 
	C511.785065,563.199036 506.621216,557.308533 502.570496,550.572327 
	C498.963898,544.574646 499.034821,544.531982 504.920502,540.323669 
z"/>
<path fill="#000000" opacity="1.000000" stroke="none" 
	d="
M388.949890,417.895691 
	C386.899719,421.145508 385.083344,424.114105 383.176605,427.023560 
	C381.456512,429.648224 378.953583,430.525391 376.347260,428.767120 
	C373.635010,426.937408 373.860809,424.192719 375.682465,421.786835 
	C381.696442,413.844086 387.160492,405.535553 392.366150,397.053955 
	C394.666931,393.305328 397.250854,395.420349 399.570953,396.730865 
	C402.455658,398.360321 400.213379,400.058746 399.239380,401.612946 
	C395.894287,406.950714 392.512268,412.265320 388.949890,417.895691 
z"/>
<path fill="#000000" opacity="1.000000" stroke="none" 
	d="
M418.185303,793.579712 
	C406.224304,797.418030 396.082794,790.125549 398.088135,779.555603 
	C399.335754,772.979614 404.537903,768.393555 411.244385,767.957336 
	C416.937988,767.587036 423.082642,771.607178 424.912170,776.899597 
	C427.218292,783.570618 425.062653,789.150818 418.185303,793.579712 
M402.381775,782.339844 
	C402.789337,783.594299 403.023651,784.941101 403.634705,786.087036 
	C406.151917,790.807678 412.259674,792.259094 417.029144,789.365112 
	C421.622101,786.578125 422.770844,780.930542 419.653137,776.394775 
	C417.339996,773.029480 414.055298,771.683655 410.128479,772.365173 
	C405.072479,773.242676 403.272064,777.088867 402.381775,782.339844 
z"/>
<path fill="#000000" opacity="1.000000" stroke="none" 
	d="
M564.155945,787.428833 
	C561.324036,778.221680 564.717896,771.030823 572.609680,768.786621 
	C580.204712,766.626892 587.550415,770.738892 589.750000,778.381531 
	C591.569031,784.701843 588.613403,791.227234 582.775146,793.780640 
	C575.654114,796.894897 568.628357,794.611694 564.155945,787.428833 
M570.714844,788.908020 
	C577.570984,792.657715 584.896301,789.879639 585.687683,783.147339 
	C586.228638,778.545532 584.476501,775.078186 580.089966,773.172302 
	C575.848083,771.329163 572.280884,772.523804 569.449646,775.883118 
	C566.300171,779.619873 566.634399,783.899292 570.714844,788.908020 
z"/>
<path fill="#000000" opacity="1.000000" stroke="none" 
	d="
M628.121033,419.139160 
	C633.973083,414.066345 635.089233,414.243896 638.829834,420.307129 
	C642.569763,426.369293 646.338928,432.413666 650.141663,438.436615 
	C651.815674,441.087891 653.531311,443.995270 650.191589,446.267914 
	C646.601746,448.710754 644.321289,445.905823 642.590271,443.150513 
	C637.663269,435.307739 632.868591,427.381836 628.121033,419.139160 
z"/>
<path fill="#000000" opacity="1.000000" stroke="none" 
	d="
M609.336731,782.464111 
	C609.303101,785.887329 609.304443,788.878113 609.222046,791.866638 
	C609.185974,793.174500 608.585876,794.166443 607.087708,793.991943 
	C605.866638,793.849731 605.551636,792.835876 605.526062,791.794983 
	C605.370850,785.489868 605.205078,779.184509 605.144836,772.878174 
	C605.131042,771.431091 605.099854,769.680115 606.773926,769.008179 
	C608.657654,768.252197 609.923645,769.546204 610.995667,770.861206 
	C613.934692,774.466248 616.774048,778.153748 619.762085,781.717041 
	C620.976562,783.165344 621.841187,785.103394 624.668457,785.729736 
	C624.668457,781.570923 624.563477,777.639221 624.716187,773.717468 
	C624.784668,771.956665 623.882690,768.996216 626.887146,769.173462 
	C629.591370,769.333069 628.896790,772.174255 628.887207,774.029297 
	C628.858154,779.670776 628.696411,785.312256 628.529236,790.951965 
	C628.491089,792.239258 628.715027,793.847107 627.228943,794.459167 
	C625.596497,795.131470 624.372986,794.058289 623.384155,792.867737 
	C620.200134,789.033936 617.064697,785.159668 613.870300,781.334595 
	C612.837158,780.097534 612.196350,778.420715 610.371155,777.946655 
	C608.768188,779.015503 609.582642,780.659546 609.336731,782.464111 
z"/>
<path fill="#000000" opacity="1.000000" stroke="none" 
	d="
M494.740753,609.309937 
	C491.616577,609.281128 488.952332,609.324646 486.294434,609.214905 
	C483.732422,609.109253 481.601105,608.116760 481.446167,605.240295 
	C481.296661,602.465027 483.511169,601.629883 485.709259,601.222412 
	C491.713043,600.109436 497.621613,601.713745 503.568604,602.101990 
	C506.357452,602.283997 509.126129,603.094238 511.852783,603.813599 
	C514.190125,604.430298 516.550781,605.497375 515.979126,608.483459 
	C515.359741,611.718506 512.793457,612.636719 509.862457,612.094421 
	C504.972900,611.189697 500.242523,609.448059 494.740753,609.309937 
z"/>
<path fill="#000000" opacity="1.000000" stroke="none" 
	d="
M477.797791,422.734924 
	C477.763489,423.374603 477.669128,423.940338 477.556854,423.943909 
	C472.891296,424.092560 472.232056,419.831787 470.277252,417.105286 
	C468.810120,415.058960 467.775970,412.662811 470.160278,410.378082 
	C474.495514,406.223969 479.297363,402.652405 484.543549,399.792236 
	C488.186584,397.806030 490.221100,400.731262 492.537231,403.135651 
	C490.124390,406.740814 486.302673,408.232635 483.255066,410.655151 
	C479.489075,413.648773 476.288330,416.940552 477.797791,422.734924 
z"/>
<path fill="#000000" opacity="1.000000" stroke="none" 
	d="
M372.461884,790.684021 
	C373.367889,790.771301 373.867737,790.855225 374.362976,790.833679 
	C376.818756,790.726807 379.972412,791.176331 380.343231,787.863220 
	C380.686462,784.796753 377.536316,784.688904 375.422241,783.959106 
	C374.485535,783.635681 373.490051,783.485107 372.525726,783.238525 
	C368.464996,782.200134 365.438293,780.240295 365.720001,775.430847 
	C365.995819,770.722595 369.158386,768.923096 373.231689,768.123840 
	C376.121338,767.556885 378.837494,768.409058 381.497009,769.379395 
	C382.626923,769.791626 383.649200,770.538879 383.138885,771.993225 
	C382.638275,773.420105 381.337372,773.446655 380.219452,773.090637 
	C377.958069,772.370300 375.694672,771.933472 373.352295,772.416565 
	C371.757294,772.745483 370.663849,773.754761 370.379852,775.398010 
	C370.069061,777.196411 371.117493,778.259277 372.668274,778.764832 
	C375.190399,779.586914 377.780792,780.199829 380.302246,781.023743 
	C383.258301,781.989624 385.190338,783.934570 385.161652,787.207458 
	C385.132690,790.507812 383.574585,792.937256 380.426056,794.144531 
	C376.335022,795.713379 372.255890,795.456421 368.279297,793.737854 
	C366.804657,793.100464 364.716553,792.462952 365.472382,790.330872 
	C366.342285,787.876831 368.219116,789.528076 369.687439,789.873596 
	C370.491150,790.062683 371.265839,790.375122 372.461884,790.684021 
z"/>
<path fill="#000000" opacity="1.000000" stroke="none" 
	d="
M477.879517,789.045776 
	C485.088135,792.845520 489.572113,790.277344 489.737244,782.660767 
	C489.816376,779.009216 489.745850,775.354187 489.835144,771.703003 
	C489.869904,770.279602 490.412079,768.992737 492.154816,769.093872 
	C493.599457,769.177734 494.057159,770.353638 494.078247,771.569214 
	C494.164673,776.541138 494.666687,781.547974 493.710724,786.469727 
	C492.547699,792.457581 488.476044,795.477783 482.313904,795.237305 
	C476.551270,795.012390 472.445282,791.596497 471.894745,785.824219 
	C471.455139,781.215027 471.733398,776.534912 471.748535,771.886414 
	C471.752991,770.520569 471.986725,769.054321 473.759369,769.010559 
	C475.847992,768.958923 476.039734,770.652771 476.079346,772.157288 
	C476.171143,775.642395 476.095703,779.131653 476.165131,782.617615 
	C476.207642,784.751770 475.959290,786.984985 477.879517,789.045776 
z"/>
<path fill="#000000" opacity="1.000000" stroke="none" 
	d="
M656.345093,794.794617 
	C651.167480,795.253296 646.568970,795.081299 643.130737,791.312622 
	C643.983154,789.239685 645.128784,789.285400 646.316772,789.578613 
	C647.602966,789.896118 648.857605,790.531250 650.148926,790.600830 
	C653.163574,790.763184 657.345825,792.203125 658.289368,788.165894 
	C659.299988,783.841736 654.550598,784.574158 652.113586,783.417297 
	C650.774597,782.781616 649.252136,782.537842 647.898071,781.927307 
	C645.461182,780.828674 643.817322,779.014648 643.808350,776.197327 
	C643.799255,773.346985 644.933777,771.049072 647.510437,769.601013 
	C651.473328,767.373901 655.514771,767.950012 659.546021,769.321899 
	C660.691956,769.711853 661.694397,770.461426 661.229797,771.911194 
	C660.767883,773.352417 659.455688,773.388977 658.337280,773.096252 
	C656.063110,772.500916 653.796082,771.983276 651.464294,772.499573 
	C649.921326,772.841248 648.692444,773.740173 648.461365,775.433228 
	C648.212524,777.256836 649.414124,778.196228 650.920837,778.695801 
	C652.645203,779.267456 654.433716,779.642883 656.184570,780.138123 
	C659.859314,781.177612 663.157166,782.571533 663.298767,787.214783 
	C663.437988,791.783630 660.620422,793.678650 656.345093,794.794617 
z"/>
<path fill="#000000" opacity="1.000000" stroke="none" 
	d="
M506.467041,460.507263 
	C509.228149,461.906006 508.388214,464.145660 508.192413,465.983185 
	C507.123230,476.015442 509.671295,485.082458 515.155090,493.428589 
	C516.070557,494.821930 517.372131,496.392609 515.622925,497.820129 
	C513.727051,499.367462 512.631470,497.540253 511.660309,496.240021 
	C504.507538,486.663727 499.639008,476.303406 501.176392,463.937103 
	C501.506744,461.279877 502.084717,458.202789 506.467041,460.507263 
z"/>
<path fill="#000000" opacity="1.000000" stroke="none" 
	d="
M559.463623,431.454895 
	C560.951599,436.169830 560.068970,438.351807 554.346558,443.358795 
	C551.309753,433.830353 548.919861,424.338226 542.256897,417.164948 
	C545.772766,412.896637 548.557190,412.916534 551.609863,416.686981 
	C555.123535,421.026825 557.519287,425.896240 559.463623,431.454895 
z"/>
<path fill="#000000" opacity="1.000000" stroke="none" 
	d="
M553.703735,409.435547 
	C558.009766,406.105530 561.068970,406.694855 563.423096,411.367828 
	C564.380920,413.269043 565.909119,414.884491 567.189636,416.621246 
	C572.544495,423.883850 572.249023,425.327545 563.821167,430.709381 
	C560.543396,424.043945 557.405273,417.297424 552.492188,411.658081 
	C551.878601,410.953735 552.720154,410.149963 553.703735,409.435547 
z"/>
<path fill="#000000" opacity="1.000000" stroke="none" 
	d="
M478.864777,420.013367 
	C478.847198,417.221802 479.679993,415.449524 482.151245,414.650543 
	C483.817932,414.111664 485.501862,413.474060 486.449982,415.521820 
	C487.495728,417.780457 485.345551,417.996765 483.522980,418.371033 
	C485.780090,420.198212 487.514771,419.839600 488.947571,418.495575 
	C490.204346,417.316620 489.947479,415.663086 489.124451,414.341003 
	C488.081635,412.665985 487.779114,411.146332 489.738342,410.164093 
	C492.000519,409.029999 493.532684,405.797089 496.577881,407.029419 
	C498.320160,407.734467 501.352051,409.146393 498.924347,411.730042 
	C493.579376,417.418427 488.589142,423.363403 484.413177,430.111176 
	C479.510864,428.146881 479.783478,423.964203 478.864777,420.013367 
z"/>
<path fill="#000000" opacity="1.000000" stroke="none" 
	d="
M466.604858,407.498718 
	C462.818939,410.087311 462.331909,406.315918 460.818451,404.854584 
	C459.171448,403.264374 460.307648,401.846710 461.630280,400.667694 
	C464.843781,397.803040 467.936829,394.778137 471.340240,392.157898 
	C475.804474,388.721008 478.352203,393.195770 482.722351,395.104340 
	C476.668121,399.162323 471.431854,402.820190 466.604858,407.498718 
z"/>
<path fill="#000000" opacity="1.000000" stroke="none" 
	d="
M519.071533,386.983582 
	C516.187500,384.096954 513.562134,381.458984 510.814178,378.697815 
	C517.016663,377.043152 530.696045,380.388184 535.159546,384.468719 
	C527.832886,391.812012 524.673767,392.363556 519.071533,386.983582 
z"/>
<path fill="#000000" opacity="1.000000" stroke="none" 
	d="
M511.099731,315.686707 
	C516.229553,315.693390 520.875122,315.687805 525.520447,315.718292 
	C527.513550,315.731354 529.177979,316.195312 529.211426,318.700653 
	C529.243408,321.095673 527.614136,322.013947 525.707703,322.085632 
	C518.586670,322.353455 511.458466,322.447510 504.332092,322.541443 
	C502.756317,322.562225 501.987335,321.521118 501.800964,320.009766 
	C501.563446,318.084015 502.316650,316.605835 504.198975,316.240112 
	C506.294342,315.832947 508.472992,315.854248 511.099731,315.686707 
z"/>
<path fill="#000000" opacity="1.000000" stroke="none" 
	d="
M558.026733,516.161133 
	C557.212097,522.771973 555.492981,523.519592 550.649902,519.796692 
	C544.807129,515.305298 544.438049,512.135376 549.199829,506.369843 
	C550.336670,504.993317 551.180054,503.281311 553.377380,502.333069 
	C555.326660,506.703613 556.856934,511.151245 558.026733,516.161133 
z"/>
<path fill="#000000" opacity="1.000000" stroke="none" 
	d="
M520.202759,793.659790 
	C516.786682,795.084412 516.727783,792.894531 516.703552,790.813293 
	C516.653198,786.493103 516.485535,782.161133 516.729065,777.854492 
	C516.946472,774.008850 516.050537,771.733948 511.611603,772.213379 
	C510.225311,772.363098 508.489197,772.394226 508.208130,770.252136 
	C508.893127,768.345764 510.580719,768.680969 511.987488,768.663940 
	C516.639465,768.607727 521.292847,768.646606 525.945374,768.686035 
	C527.164124,768.696350 528.444824,769.000427 528.540405,770.441895 
	C528.642517,771.980835 527.327881,772.403381 526.135437,772.265259 
	C521.173645,771.690613 520.939087,774.706116 520.935364,778.448608 
	C520.930420,783.408752 521.624695,788.411743 520.202759,793.659790 
z"/>
<path fill="#000000" opacity="1.000000" stroke="none" 
	d="
M520.083618,333.759766 
	C509.526978,334.899841 507.489471,333.842255 505.498749,326.103271 
	C512.241699,323.384613 519.047119,326.937561 526.088928,324.849884 
	C525.856323,329.864441 523.330322,331.855621 520.083618,333.759766 
z"/>
<path fill="#000000" opacity="1.000000" stroke="none" 
	d="
M456.452209,794.921021 
	C440.647949,795.362793 440.650879,795.362793 440.654846,780.088684 
	C440.655518,777.437683 440.590332,774.786499 440.612396,772.135864 
	C440.624329,770.702637 440.233612,768.793091 442.460724,768.777100 
	C444.813477,768.760132 444.824768,770.781006 444.803314,772.405151 
	C444.755310,776.044617 444.427429,779.680969 444.399017,783.320007 
	C444.341156,790.734253 444.391693,790.728516 452.098114,790.762024 
	C453.587738,790.768494 455.079834,790.801697 456.565460,790.901794 
	C457.611603,790.972290 458.587738,791.414978 458.828583,792.508240 
	C459.153442,793.982971 458.096252,794.533325 456.452209,794.921021 
z"/>
<path fill="#000000" opacity="1.000000" stroke="none" 
	d="
M464.902954,384.989380 
	C466.508789,385.797241 468.008575,386.213623 468.635864,388.161682 
	C464.855469,391.722809 461.067078,395.341675 457.216400,398.893066 
	C455.764313,400.232330 454.434845,399.275421 453.239258,398.345795 
	C451.967316,397.356750 450.210114,396.585632 450.382538,394.611298 
	C450.652435,391.520386 461.021362,384.477570 464.902954,384.989380 
z"/>
<path fill="#000000" opacity="1.000000" stroke="none" 
	d="
M547.821167,455.747009 
	C544.428833,462.150482 541.289490,468.277771 535.945496,473.780914 
	C534.146240,469.838898 536.317200,466.655121 535.905151,463.515503 
	C535.361694,459.375458 538.429016,458.458496 541.274109,456.950714 
	C545.312622,454.810486 546.671021,450.066711 550.092773,446.511017 
	C551.713074,450.437286 549.106628,452.753052 547.821167,455.747009 
z"/>
<path fill="#000000" opacity="1.000000" stroke="none" 
	d="
M572.486816,401.530518 
	C574.696594,404.850372 576.394897,408.128235 578.572998,411.048248 
	C580.869202,414.126648 579.375305,415.770355 576.979675,417.550262 
	C574.084412,419.701385 572.914001,417.650116 571.539368,415.617249 
	C569.139343,412.067780 566.641235,408.584625 564.030823,404.854584 
	C566.583923,402.805145 569.211487,401.691833 572.486816,401.530518 
z"/>
<path fill="#000000" opacity="1.000000" stroke="none" 
	d="
M445.221069,391.684937 
	C442.881805,390.445129 440.831390,389.370300 439.385315,387.509888 
	C445.627502,376.793457 448.513458,376.593262 456.810913,382.567657 
	C452.930115,385.643219 450.198212,389.769012 445.221069,391.684937 
z"/>
<path fill="#000000" opacity="1.000000" stroke="none" 
	d="
M579.104431,403.041656 
	C578.110779,401.733551 576.933228,400.937042 576.806152,399.499847 
	C583.791443,394.105255 584.725098,394.461853 592.338867,405.471100 
	C591.531921,408.127045 588.854248,408.716003 586.900757,410.092407 
	C585.367310,411.172852 584.143555,410.665436 583.174011,409.120911 
	C581.938293,407.152313 580.612366,405.240356 579.104431,403.041656 
z"/>
<path fill="#000000" opacity="1.000000" stroke="none" 
	d="
M387.148315,398.177155 
	C385.696350,400.198975 384.537415,402.019287 383.125549,403.615936 
	C381.827911,405.083313 380.098755,405.642853 378.214691,404.616669 
	C376.222382,403.531433 375.395081,401.671722 375.946136,399.603088 
	C377.017456,395.581085 379.851105,392.745270 383.219116,390.558807 
	C385.342957,389.180084 387.079956,390.922668 388.411072,392.242584 
	C390.615692,394.428619 388.154755,396.071564 387.148315,398.177155 
z"/>
<path fill="#000000" opacity="1.000000" stroke="none" 
	d="
M614.316528,389.540588 
	C615.740906,391.152618 617.579773,392.783386 614.831726,394.038422 
	C612.402100,395.148102 609.976868,398.527130 606.934753,395.517670 
	C604.974670,393.578674 603.560669,391.087616 601.930969,388.883179 
	C607.630798,383.458588 609.482727,383.557159 614.316528,389.540588 
z"/>
<path fill="#000000" opacity="1.000000" stroke="none" 
	d="
M603.219604,399.105103 
	C601.640381,401.763458 599.067017,403.830902 596.722229,402.708344 
	C593.531067,401.180603 591.286743,397.858063 590.075500,394.448029 
	C589.403809,392.556854 591.849121,392.051147 593.252075,391.307098 
	C595.128357,390.312012 597.047363,389.766418 598.547668,391.828918 
	C600.187073,394.082642 601.664917,396.453888 603.219604,399.105103 
z"/>
<path fill="#000000" opacity="1.000000" stroke="none" 
	d="
M646.720581,411.723145 
	C650.176392,412.567963 652.696594,414.217590 653.877197,417.149506 
	C654.849243,419.563446 654.840088,422.207153 652.136658,423.703644 
	C649.647888,425.081299 647.632446,423.874695 646.098694,421.859100 
	C644.178345,419.335480 642.950745,416.449860 642.003601,413.547211 
	C642.897522,411.374054 644.711487,411.794647 646.720581,411.723145 
z"/>
<path fill="#000000" opacity="1.000000" stroke="none" 
	d="
M432.136261,383.143372 
	C430.352875,381.945770 428.540405,381.323364 427.717377,379.589905 
	C432.647949,371.415741 435.177124,370.826080 442.446808,376.692169 
	C438.960876,378.907532 438.595428,384.924713 432.136261,383.143372 
z"/>
<path fill="#000000" opacity="1.000000" stroke="none" 
	d="
M542.973633,782.965637 
	C542.970398,778.983826 542.912537,775.491638 542.980042,772.001770 
	C543.010559,770.425110 543.468689,768.836548 545.484802,769.031799 
	C547.247620,769.202637 547.252258,770.808228 547.261169,772.123352 
	C547.304077,778.440918 547.308044,784.758850 547.279724,791.076538 
	C547.273010,792.579407 547.261963,794.334473 545.098511,794.256409 
	C543.024170,794.181702 542.994568,792.414124 542.951111,790.936646 
	C542.877808,788.445557 542.955811,785.949890 542.973633,782.965637 
z"/>
<path fill="#000000" opacity="1.000000" stroke="none" 
	d="
M614.817749,383.315979 
	C614.440063,379.380402 617.743958,379.167664 619.845581,378.124420 
	C622.014587,377.047699 622.890869,379.468628 623.964172,380.777954 
	C628.355530,386.134644 628.247253,387.108643 623.781982,389.368591 
	C621.591919,390.477020 620.122314,390.151031 618.732300,388.207184 
	C617.585938,386.604156 616.250793,385.136200 614.817749,383.315979 
z"/>
<path fill="#000000" opacity="1.000000" stroke="none" 
	d="
M407.086823,368.932861 
	C403.609314,364.951691 403.610931,361.894348 407.183624,359.688446 
	C410.837585,357.432373 413.388489,360.581512 415.202911,362.661896 
	C417.531860,365.332214 414.077026,367.307526 412.798615,369.367493 
	C411.066803,372.157959 409.145660,370.417603 407.086823,368.932861 
z"/>
<path fill="#000000" opacity="1.000000" stroke="none" 
	d="
M634.013428,381.731506 
	C628.397522,382.295868 628.903442,376.572418 625.235657,374.579987 
	C628.198059,372.153595 629.914978,367.932983 634.066284,371.214539 
	C638.743530,374.911835 638.629700,377.363129 634.013428,381.731506 
z"/>
<path fill="#000000" opacity="1.000000" stroke="none" 
	d="
M587.962402,480.624451 
	C585.190369,483.170502 582.645813,483.300476 580.452271,480.593872 
	C578.645386,478.364349 578.084961,475.764130 580.136414,473.373322 
	C582.010742,471.188904 584.696106,470.988800 586.864197,472.459900 
	C589.726746,474.402191 589.922180,477.326782 587.962402,480.624451 
z"/>
<path fill="#000000" opacity="1.000000" stroke="none" 
	d="
M576.420898,251.033661 
	C577.091370,247.447922 579.332031,246.335999 582.299866,246.574738 
	C584.995361,246.791580 586.372498,248.715149 586.869934,251.153214 
	C587.358154,253.546906 586.226990,255.376526 584.135803,256.508545 
	C580.927490,258.245331 578.133667,256.365692 576.420898,251.033661 
z"/>
<path fill="#000000" opacity="1.000000" stroke="none" 
	d="
M533.251709,572.871704 
	C539.034668,573.731934 541.394348,576.619812 539.474060,580.034790 
	C538.219055,582.266602 536.187927,583.344849 533.650146,582.893372 
	C531.024658,582.426331 529.898071,580.476379 529.404846,578.001587 
	C528.823914,575.086975 530.319946,573.679138 533.251709,572.871704 
z"/>
<path fill="#000000" opacity="1.000000" stroke="none" 
	d="
M508.249237,544.233398 
	C509.000519,540.995300 510.365356,538.789612 513.762817,539.457458 
	C516.807556,540.055969 518.300476,542.266602 518.107300,545.247437 
	C517.946045,547.734558 516.568726,549.913757 513.904663,550.088501 
	C510.303864,550.324585 508.488586,548.120667 508.249237,544.233398 
z"/>
<path fill="#000000" opacity="1.000000" stroke="none" 
	d="
M467.647797,525.912109 
	C464.502075,526.661377 462.329102,526.156921 461.440430,523.096558 
	C460.786163,520.843384 458.004700,520.717712 456.531830,518.066406 
	C461.094604,517.546204 465.390961,514.827454 469.116394,518.624756 
	C471.178802,520.726929 471.211151,523.806458 467.647797,525.912109 
z"/>
<path fill="#000000" opacity="1.000000" stroke="none" 
	d="
M528.897095,497.036346 
	C531.291565,499.388824 532.330933,501.796875 530.012634,504.231079 
	C528.217651,506.115814 525.827698,507.037933 523.255005,505.585754 
	C520.921265,504.268402 520.112366,502.039093 520.957336,499.624878 
	C522.284973,495.831421 525.118469,495.296539 528.897095,497.036346 
z"/>
<path fill="#000000" opacity="1.000000" stroke="none" 
	d="
M599.143555,498.987000 
	C600.578003,502.441071 599.798035,504.968933 596.770203,506.342896 
	C593.848877,507.668457 592.146912,505.588501 590.774170,503.413055 
	C589.258301,501.010864 589.269348,498.608856 591.746948,496.885254 
	C594.675476,494.847992 597.020508,496.178406 599.143555,498.987000 
z"/>
<path fill="#000000" opacity="1.000000" stroke="none" 
	d="
M483.428589,254.340881 
	C480.348541,257.294678 477.418213,257.059814 474.967834,254.371857 
	C473.080811,252.301910 473.149200,249.754410 475.330231,247.757965 
	C477.621338,245.660736 480.182220,245.862686 482.507599,247.717941 
	C484.617004,249.400909 484.624817,251.651535 483.428589,254.340881 
z"/>
<path fill="#000000" opacity="1.000000" stroke="none" 
	d="
M569.231628,520.838501 
	C568.412476,524.009216 566.627014,525.479492 563.742493,524.987427 
	C561.807617,524.657288 559.823425,524.035339 559.431519,521.602173 
	C559.023132,519.066956 559.976929,517.067139 562.061951,515.680054 
	C565.332825,513.504028 568.137268,515.377991 569.231628,520.838501 
z"/>
<path fill="#000000" opacity="1.000000" stroke="none" 
	d="
M416.646912,373.569916 
	C418.677765,365.051666 422.262329,365.028412 428.246216,370.237061 
	C424.760864,377.237793 422.433228,377.978455 416.646912,373.569916 
z"/>
<path fill="#000000" opacity="1.000000" stroke="none" 
	d="
M490.251587,567.255859 
	C487.170410,568.943054 485.093903,567.679504 483.424927,565.636902 
	C482.223083,564.166077 481.785736,562.357605 482.867462,560.551941 
	C484.000641,558.660400 485.806641,557.887817 487.919525,558.027832 
	C492.238037,558.314026 493.393219,562.291260 490.251587,567.255859 
z"/>
<path fill="#000000" opacity="1.000000" stroke="none" 
	d="
M578.396973,332.570404 
	C575.793701,329.390533 576.458130,326.762573 579.012695,324.496979 
	C581.049683,322.690460 583.077148,323.577545 584.732788,325.146790 
	C586.832581,327.136963 586.771912,329.596405 585.351501,331.904022 
	C583.592834,334.761139 581.238708,334.840057 578.396973,332.570404 
z"/>
<path fill="#000000" opacity="1.000000" stroke="none" 
	d="
M478.842682,582.782593 
	C482.040863,581.322205 484.513794,581.802856 485.848083,584.702087 
	C486.880951,586.946411 486.547211,589.342468 484.388519,590.927734 
	C482.515289,592.303406 480.304626,592.723206 478.523895,590.864319 
	C476.127594,588.362854 475.962433,585.628296 478.842682,582.782593 
z"/>
<path fill="#000000" opacity="1.000000" stroke="none" 
	d="
M429.176178,258.047607 
	C430.164459,253.858810 432.947510,253.050766 436.129883,254.083939 
	C438.840515,254.963943 439.912964,257.458038 438.987183,260.155487 
	C438.032379,262.937683 435.537933,263.619934 432.856964,263.154114 
	C430.332428,262.715424 429.476135,260.733673 429.176178,258.047607 
z"/>
<path fill="#000000" opacity="1.000000" stroke="none" 
	d="
M599.485779,429.213379 
	C595.632812,428.877411 596.743469,425.805420 595.246643,423.084290 
	C601.877136,424.763763 606.844116,420.745667 612.677185,420.868835 
	C609.499390,425.466766 604.241577,426.639252 599.485779,429.213379 
z"/>
<path fill="#000000" opacity="1.000000" stroke="none" 
	d="
M471.056946,310.225067 
	C474.814606,311.212219 475.987701,313.561188 474.848419,316.704712 
	C474.033661,318.952759 472.241455,320.563019 469.554779,320.471771 
	C468.164154,320.424561 466.162445,319.590088 466.597626,318.513885 
	C467.744263,315.677948 465.390930,310.957489 471.056946,310.225067 
z"/>
<path fill="#000000" opacity="1.000000" stroke="none" 
	d="
M458.691620,408.224762 
	C460.783508,410.947601 460.391785,413.192047 458.194916,415.093414 
	C456.669312,416.413757 454.819885,416.568268 453.102203,415.504242 
	C450.909302,414.145844 450.710815,411.771393 451.317383,409.725464 
	C452.566956,405.510834 455.476440,406.352478 458.691620,408.224762 
z"/>
<path fill="#000000" opacity="1.000000" stroke="none" 
	d="
M528.843323,430.512177 
	C532.912415,435.288116 533.723633,440.641449 533.344788,446.440948 
	C530.528503,441.566193 528.040771,436.582733 524.342957,432.366302 
	C523.584351,431.501312 524.001343,430.453278 524.815674,429.708405 
	C526.278442,428.370392 527.524292,428.916199 528.843323,430.512177 
z"/>
<path fill="#000000" opacity="1.000000" stroke="none" 
	d="
M425.709961,362.990540 
	C420.156799,361.705627 415.875671,358.455078 411.416168,355.160400 
	C415.540192,351.829895 416.470764,351.921051 419.497894,355.312439 
	C421.686462,357.764343 426.103912,358.302124 425.709961,362.990540 
z"/>
<path fill="#000000" opacity="1.000000" stroke="none" 
	d="
M595.446899,303.875305 
	C592.882935,302.284241 591.185364,300.571747 592.180725,297.654053 
	C592.744812,296.000641 593.833496,294.857727 595.723633,294.694305 
	C597.730957,294.520691 599.236511,295.351227 600.330078,296.957275 
	C602.594727,300.283295 600.600891,303.390869 595.446899,303.875305 
z"/>
<path fill="#000000" opacity="1.000000" stroke="none" 
	d="
M394.138214,354.958801 
	C392.856262,352.905609 390.500702,351.158783 393.036926,349.097778 
	C395.403534,347.174622 397.795532,348.017700 399.614166,350.197510 
	C400.934631,351.780212 403.258423,353.574677 401.281006,355.741058 
	C399.168213,358.055664 396.526672,357.785980 394.138214,354.958801 
z"/>
<path fill="#000000" opacity="1.000000" stroke="none" 
	d="
M646.411377,361.519135 
	C645.929443,367.417603 643.994019,369.676788 641.080261,368.122925 
	C639.533936,367.298279 637.738586,366.285248 637.921387,364.133392 
	C638.099304,362.038269 639.517944,360.525085 641.229492,359.492615 
	C643.435181,358.162109 644.888977,359.693268 646.411377,361.519135 
z"/>
<path fill="#000000" opacity="1.000000" stroke="none" 
	d="
M646.017090,346.009521 
	C645.964600,345.863708 645.908325,345.706085 645.835999,345.556274 
	C644.702454,343.209534 643.791138,340.782135 646.170715,338.714996 
	C647.894470,337.217590 649.890442,337.403839 651.659973,338.790680 
	C653.257507,340.042755 653.896790,341.800018 653.174744,343.695312 
	C652.000671,346.776917 649.333679,346.332764 646.399658,346.020416 
	C645.986511,345.982117 646.005798,346.001404 646.017090,346.009521 
z"/>
<path fill="#000000" opacity="1.000000" stroke="none" 
	d="
M426.698029,436.513550 
	C429.729889,437.143250 431.972382,438.290039 431.425995,441.483093 
	C431.073395,443.543762 429.211517,444.233154 427.262054,444.392426 
	C424.938019,444.582275 423.305420,443.543976 422.877258,441.272034 
	C422.378876,438.627289 423.209015,436.647919 426.698029,436.513550 
z"/>
<path fill="#000000" opacity="1.000000" stroke="none" 
	d="
M410.437866,352.123840 
	C409.845947,351.815430 409.650513,351.595367 409.283997,351.236816 
	C409.001556,350.272156 408.752411,349.453278 408.776672,348.642578 
	C408.861023,345.823334 410.030640,343.824554 413.141876,343.734222 
	C415.181824,343.675018 416.761993,344.670868 417.110260,346.730621 
	C417.604706,349.655457 416.033661,351.442810 413.304382,352.200256 
	C412.543701,352.411377 411.669159,352.212067 410.437866,352.123840 
z"/>
<path fill="#000000" opacity="1.000000" stroke="none" 
	d="
M510.405701,452.520020 
	C510.333069,454.490570 510.333069,456.114471 510.333069,457.646667 
	C508.055939,458.890747 505.902802,459.084747 505.044708,456.723907 
	C504.182434,454.351624 504.440430,451.549957 506.916840,450.066925 
	C508.779083,448.951691 511.038971,448.531982 510.405701,452.520020 
z"/>
<path fill="#000000" opacity="1.000000" stroke="none" 
	d="
M636.082642,339.912903 
	C634.778503,340.408478 633.660522,341.031738 632.582153,340.969269 
	C630.209778,340.831970 628.579651,339.435822 628.171021,337.050781 
	C627.754944,334.622009 628.913086,332.782318 631.177551,332.039795 
	C633.459717,331.291473 635.361877,332.243256 636.634277,334.297119 
	C637.370728,335.485870 637.297424,336.806824 637.099365,338.532074 
	C636.792236,339.201477 636.539490,339.465515 636.082642,339.912903 
z"/>
</svg>